<?xml version="1.0" encoding="utf-8"?>
<!-- Generator: Adobe Illustrator 16.0.0, SVG Export Plug-In . SVG Version: 6.00 Build 0)  -->
<!DOCTYPE svg PUBLIC "-//W3C//DTD SVG 1.1//EN" "http://www.w3.org/Graphics/SVG/1.1/DTD/svg11.dtd">
<svg version="1.1" id="Layer_1" xmlns="http://www.w3.org/2000/svg" xmlns:xlink="http://www.w3.org/1999/xlink" x="0px" y="0px"
	 width="1154.504px" height="427.42px" viewBox="0 0 1154.504 427.42" enable-background="new 0 0 1154.504 427.42"
	 xml:space="preserve">
<g opacity="0.75">
	<g>
		<path fill="#FFFFFF" d="M160.567,103.849c-2.122-0.842-1.051,3.239-3.164,3.735c-2.115,0.505-4.647,1.749-2.954,2.253
			c1.686,0.496,5.484-0.251,5.913-0.999C160.779,108.089,161.204,104.1,160.567,103.849"/>
		<path fill="#FFFFFF" d="M144.316,109.332c-2.537-0.244-5.074,0-5.491,1.001c-0.429,1,2.32,1.748,4.01,1.748
			c1.686,0,5.065-1.252,4.43-1.495C146.634,110.333,144.316,109.332,144.316,109.332"/>
		<path fill="#FFFFFF" d="M158.25,87.631c-0.861,0.306,1.478,1.994,2.317,1.994c0.847,0,2.325-2.742,0.637-2.742
			S160.362,86.883,158.25,87.631"/>
		<path fill="#FFFFFF" d="M165.639,67.169l1.264,1.256c1.268,1.242,3.38,1.737,5.281,1.988c1.9,0.253,1.9-1.24,0.419-2.738
			c-1.475-1.494-1.9-1.251-3.168-1.494c-1.264-0.254-1.474-1.751-4.85-1.751c-3.381,0-2.959-1.992-3.381-2.995
			c-0.424-0.999,3.234-2.945,4.08-2.696c0.847,0.25,3.943-0.553,3.943-0.553s5.491-2.486,6.123-1.992
			c0.637,0.497,3.803-0.494,5.279-1.001c1.481-0.494,2.322-3.238,2.322-3.238s1.903,0.755,2.957,1.997c1.056,1.241,3.378,0,4.013,0
			c0.634,0,4.133,0.81,4.133,0.81s3.427-0.506,5.112-0.757c1.693-0.251,6.589,1.939,8.279,2.445
			c1.688,0.494,10.56-1.688,11.409-1.688c0.841,0,3.793,4.425,6.537,3.677c2.745-0.747,4.013,0.499,4.647,0.748
			c0.632,0.253,1.264,0.253,2.325,1.748c1.054,1.503,2.108,0.246,3.588-0.747c1.476-1.001,1.264-2.002,1.264-2.002l1.273-0.243
			c1.264-0.251,2.108,0.496,5.696,0.75c3.591,0.245,2.745-0.75,5.279-1.749c2.534-1,5.069,1.242,5.916,0.999
			c0.841-0.251,1.902-2.243,2.532-1.252c0.634,1.001,1.687,2.998,1.687,2.998s2.745-2.494,3.591-2.494
			c0.844,0,5.67,0.461,7.148,0.22c1.476-0.254,4.888,0.277,6.154,1.523c1.266,1.25,4.433,0.999,6.123,2.243
			c1.688,1.257,3.379-0.993,2.532-1.492c-0.844-0.502-2.954-2.494-2.954-2.494s-3.171-4.485-3.588-5.24
			c-0.42-0.748-1.054-0.748-1.901,1.249c-0.846,1.989-4.01,1.989-7.603,2.245c-3.588,0.251-1.264-1.992-5.276-2.245
			c-4.011-0.253-2.533-1.997-1.266-1.997c1.266,0,2.11-2.995,2.529-4.743c0.425-1.746,1.9-1.495,4.859-1.244
			c2.955,0.248,3.801-0.502,6.757,0c2.957,0.496,2.747-1.496,5.696-1.252c2.962,0.251,1.481,0.75,3.172,1.999
			c1.688,1.244,2.744,0.996,5.066,2.245c2.322,1.25,1.481,1.25,2.537,1.5c1.056,0.249,4.642-0.501,6.752-0.752
			c2.113-0.249,3.803-0.499,4.857,1.001c1.059,1.495,0.847,3.243,2.327,4.487c1.478,1.252-0.846-4.487-0.846-6.484
			s2.954-0.251,4.859-0.251c1.898,0,4.008-0.75,4.43,0.251c0.422,0.996-2.744,2.498-0.842,4.746c1.898,2.242,3.169,2.99,4.855,2.99
			c1.688,0,5.491,0.494,3.798,3.238c-1.686,2.745-6.118,2.497-7.599,2.497c-1.478,0-4.01,1.003-3.378,2.495
			c0.634,1.496,4.012,0.748,6.33,0.748c2.329,0,9.506,0.748,11.404,0c1.903-0.748,1.481-3.743-0.634-4.49
			c-2.108-0.748-0.417-2.245,1.693-1.749c2.112,0.499,4.22-0.747,3.8,0c-0.422,0.748,0.212,2.496,0.212,4.493
			c0,1.994,0.634,3.249,2.108,2.745c1.478-0.497,1.218-2.147,2.696-2.398c1.478-0.246,1.107-3.091,0.258-5.336
			c-0.837-2.243-1.476-3.495-1.264-4.739c0.215-1.249,2.537-1.495,3.801-0.253c1.268,1.254,2.957,3.74,2.957,3.74
			s2.536,1.748,3.378,3.745c0.846,2.002,1.056,1.5,2.744,0.251c1.688-1.247,2.115-0.998,3.591,0.248
			c1.481,1.247,0.422,3.743,0.422,4.491c0,0.755,2.112,0,2.532-1.496c0.427-1.492,2.113-1.492,3.174-1.994
			c1.051-0.501,1.051-3.497,1.051-3.497s-2.744-0.747-5.489-0.496c-2.744,0.243-3.593-0.251-5.7-1.999
			c-2.113-1.739-0.844-2.993-1.903-4.737c-1.056-1.745,3.378-2.746,6.125-4.244c2.742-1.495,5.486-0.499,4.855,3.244
			c-0.632,3.745-1.054,3.25,2.112,2.503c3.169-0.755-0.215-3.999,1.264-4.249c1.48-0.249,5.278-0.996,6.549-0.748
			c1.266,0.251,8.233-0.75,9.926-0.75c1.686,0,4.43,1.748,6.33,2.998c1.903,1.246,6.972,2.99,8.236,3.74
			c1.268,0.747,10.135,2.243,10.979,2.493c0.844,0.256,0.844,3.246,1.691,5.742c0.846,2.494,3.168,0.748,4.01,0.748
			c0.847,0,3.801,1.746,4.647,2.993c0.844,1.251,7.181,2.24,7.181,2.24s-1.478,2.245-2.11,2.995c-0.636,0.75-2.114,1.251-3.38,2.245
			c-1.271,1.003-2.745-0.246-4.438-1.495c-1.688-1.249-4.647-1.995-5.279-1.5c-0.631,0.504-0.205,1.5,0.215,2.25
			c0.417,0.745,3.164,1.748,4.857,3.243c1.686,1.5,1.266,2.995,1.473,4.99c0.213,1.996-1.685-0.753-3.798-1.247
			c-2.115-0.494-2.32,1.992-2.32,1.992s-2.749-0.241-4.015-0.241s0,0-2.322-2.002c-2.325-1.992-1.898,1.252-3.164,0.251
			c-1.266-0.998-2.534-2.496-3.171-1.994c-0.634,0.501-2.744-2.248-4.013-1.997c-1.268,0.248-6.332-0.753-7.599-0.251
			c-1.268,0.499-2.324,0.499-3.378,0.998c-1.061,0.5-1.478-3.496-0.846-4.738c0.634-1.254,2.114-1.498,4.859-0.75
			c2.744,0.75,2.956,0,3.588-1.252c0.634-1.242,1.266-2.486,4.223-3.487c2.956-1.001-0.213-1.748-1.054-2.247
			c-0.849-0.497-1.903-1.498-2.535,0c-0.634,1.5-2.112,3.248-2.112,3.248s-1.691,0-4.013-0.253
			c-2.322-0.251-0.634-1.249,0.422-1.749c1.054-0.496,2.322-3.491,1.266-4.239c-1.049-0.75-1.481-1.247-3.378-0.75
			c-1.898,0.499-0.632-1.751-1.898-2.498c-1.266-0.748-0.847,0.504-0.847,1.499c0,0.999-1.9,0.751-1.9,0.751s-2.957-0.502-4.013,0
			c-1.054,0.499-2.956,1.492-2.32,2.247c0.635,0.748,2.742,0.748,3.376,2.99c0.632,2.243-2.741,2.749-3.376,2.991
			c-0.636,0.255-3.168,1.256-3.168,1.256s-2.532-0.748-4.645-0.748c-2.112,0-2.744,0.244-2.325,1.242
			c0.427,0.999,1.476,0.495,2.11,0.495c0.635,0,0.635,1.254,2.537,0.75c1.9-0.499,1.479-1.245,3.169,0.75
			c1.686,1.997,3.379,1.743,6.123,3.494c2.742,1.746-0.425,3.748-1.903,3.748c-1.476,0-1.476-1.5-2.322-2.998
			c-0.847-1.5-4.22,0.248-4.22,0.248s-2.749,1.751-4.22,1.751c-1.481,0-2.537-0.255-0.639-1.999c1.902-1.746-2.323-2.002-2.323-4.49
			c0-2.496-1.215,4.244-1.215,5.493c0,1.247-1.317-1.502-4.908-1.003c-3.588,0.497-2.956,1.999-7.603,5.484
			c-4.647,3.497-3.429,2.684-3.012,5.93c0.429,3.241-0.786,3.803,1.114,4.302c1.898,0.501,1.264,4.239,2.745,3.988
			c1.478-0.243,2.536-1.497,5.49,0.251c2.955,1.749,4.435,2.245,8.023,2.993c3.591,0.747,5.335,0.325,7.235-0.176
			c1.905-0.499,3.745,1.922,3.745,3.67c0,1.751,1.269,1.997,1.056,4.245c-0.209,2.245,2.323-2,2.323-2s1.056,3.748,0.209,4.245
			c-0.841,0.494,0.213,2.739,1.266,2.495c1.059-0.25,2.537,0.748,3.806-0.504c1.264-1.244-0.634-4.984-0.634-6.484
			c0-1.495-1.271-2.245-1.903-3.745c-0.634-1.493,1.69-1.746,2.537-0.246c0.846,1.495,2.32,0.246,3.796-1.001
			c1.478-1.247,1.478-3.492,1.478-3.492s-2.53-3.993-4.428-4.987c-1.905-1-1.061-1.249,0.837-1.748c1.903-0.502,0-1.249,0.427-3.993
			c0.42-2.742,0.42-4.488,1.476-4.488c1.056,0,4.854-0.753,8.028-0.497c3.166,0.251,4.644,2.99,6.757,3.243
			c2.107,0.241,5.484,0.748,6.12,1.99c0.632,1.251-3.735,2.026-2.255,4.02c1.476,1.997,3.099,1.225,4.577,1.972
			c1.479,0.75,3.164,0.249,5.069-2.749c1.903-2.99,2.742-3.243,3.374-2.744c0.634,0.502,4.652,5.988,5.706,7.242
			c1.056,1.244,2.071,4.869,2.286,6.123c0.212,1.241,4.256,0.356,5.1,0.356c0.844,0,4.013,2.747,4.435,4.247
			c0.424,1.495,1.268,1.997,4.01,2.745c2.75,0.749,0,3.487-0.631,4.984c-0.635,1.498-1.054,1.999-1.901,3.743
			c-0.841,1.748,0,0,1.056,0.747c1.057,0.75,1.476,1.751,3.169,1.254c1.691-0.504,2.532,0,3.164,1.496
			c0.632,1.499,1.481,2.744,2.113,3.988c0.634,1.252,0,3.244-0.847,1.999c-0.837-1.254-3.586-0.504-3.586-0.504
			s-1.268,1.495-1.69,0.748c-0.42-0.748-1.266-1.739-2.747-1.242c-1.473,0.494-2.952,0-4.644,0.251
			c-1.689,0.243-2.32-1.001-1.267-2.002c1.059-0.991,1.267-4.734,3.379-6.236c2.112-1.495,1.481-3.738,0-3.738
			s-2.112,2.243-2.954,2.744c-0.847,0.495-3.733-0.928-5.214,0.319c-1.476,1.249-3.865,2.177-2.387,2.674
			c1.476,0.499-2.11,2.498-3.376,2.498c-1.271,0-0.847-3.248-0.847-4.497c0-1.244-1.693,0.75-1.693,0.75s-3.376-2.245-4.642-0.75
			c-1.271,1.502-5.831,0.861-7.309,2.353c-1.478,1.503-2.192,5.378-2.192,5.378s1.271-0.745,3.801-1.495
			c2.531-0.747,2.319-0.494,4.429-1.739c2.115-1.254,4.228-1.748,5.706,0.497c1.476,2.243-0.634,3.487-0.634,3.487
			s0.841,1.749,1.685,2.248c0.849,0.501,1.057-0.499,2.535-1.5c1.478-0.991,0.846,2.001,1.273,2.995
			c0.42,0.998,1.9,0.998,2.74-0.249c0.841-1.246,1.475-2.242,2.11-1.495c0.631,0.75,1.268,2.494,1.902,4.24
			c0.635,1.75-4.434,2.25-5.276,2.498c-0.844,0.246-4.859,1.244-5.493,1.498c-0.635,0.246-2.74,2.488-4.433,2.488
			c-1.688,0-1.481-2.992-1.688-4.734c-0.212-1.75-2.325,0.249-2.537,0.994c-0.207,0.748-2.11,0.504-3.586,0.748
			c-1.478,0.25-4.01,2.001-4.01,3.991c0,1.996,2.976,4.143,2.342,5.139c-0.632,1.001-5.513,0.6-6.991,0.101
			c-1.476-0.499-3.591,0.747-2.957,1.751c0.634,0.993,0.215,2.488-1.264,2.247c-1.48-0.253-1.69,1.495-1.056,2.74
			c0.632,1.244-1.905,3.74-2.537,2.742c-0.634-0.996-1.9-1.498-1.9,0c0,1.497,1.237,3.564,2.51,5.56
			c1.264,1.997-3.559,2.429-5.04,3.922c-1.479,1.5-4.777,6.625-6.885,7.625c-2.112,0.996-3.884,4.099-2.833,5.344
			c1.059,1.251,2.327,6.487,2.961,8.235c0.632,1.747-0.214,6.73-2.115,6.488c-1.897-0.253-0.846-3.243-2.744-3.991
			c-1.9-0.75-2.956-5.239-3.378-8.239c-0.423-2.99-0.844-1.242-2.115-0.25c-1.266,1.003-2.53-1.99-3.162-2.74
			c-0.634-0.748-3.767,1.454-6.299,1.21c-2.534-0.25-3.839,0.287-3.839,1.035c0,0.745-0.419,2.99-2.744,1.498
			c-2.322-1.498-2.747-1.498-5.067-1.498c-2.324,0-4.437-0.253-4.854,0.745c-0.427,1.003-2.744,3.244-4.225,3.745
			c-1.481,0.502-4.222,2.998-2.956,3.492c1.268,0.502,1.268,3.993,0.424,5.984c-0.846,1.997-0.634,5.492-0.215,8.983
			c0.422,3.497,2.959,5.739,5.282,7.984c2.322,2.25,3.171,2.995,5.488,0.998c2.325-1.994,3.164-0.747,3.801-0.497
			c0.634,0.249,2.322-1.251,1.688-3.496c-0.632-2.242,0.846-4.241,2.746-3.988c1.898,0.251,4.645-0.747,6.126-0.499
			c1.478,0.246,2.319,4.986,0,6.98c-2.325,2.002-1.059,4.995-1.481,7.24c-0.422,2.242-2.325,2.739,0,2.739
			c2.327,0,1.693,0.504,3.169,0.748c1.476,0.255,2.956-1.493,4.435-1.746c1.475-0.241,5.276,3.745,4.644,5.747
			c-0.634,1.991-1.269,5.478-1.056,8.724c0.21,3.246,1.056,3.495,1.476,4.493c0.427,1.001,2.112,3.246,4.01,2.245
			c1.9-0.998,3.803-1.744,4.435-2.744c0.636-0.998,4.649,1.746,4.225,2.498c-0.422,0.743,1.476,1.495,2.742,0.743
			c1.268-0.743,1.902-1.995,3.171-3.989c1.266-1.999,3.381-3.742,4.432-3.996c1.056-0.243,3.593-3.241,5.281-2.736
			c1.691,0.494-0.634,2.99-0.846,4.485c-0.21,1.495,0,5.739,0.846,5.988c0.844,0.248,0.425-2.993,1.476-5.238
			c1.056-2.245,3.164-3.499,4.228-3.499c1.051,0,1.898,5.245,3.373,3.749c1.481-1.495,4.435-1.251,5.069,0.249
			c0.632,1.495,1.264,2.245,1.264,2.245s1.061-0.998,1.061-2.245c0-1.249,3.374-2.501,5.491-1.001
			c2.11,1.495,1.266,1.999,2.32,2.248c1.054,0.248,2.112-3.244,2.744-3.495c0.632-0.253,0,3.994-1.48,6.239
			c-1.474,2.247,1.265,1.5,1.265,1.5l0.635,0.747c0.631,0.75,2.744-0.747,3.59,0.75c0.847,1.496,2.328,1.99,3.594,4.741
			c1.266,2.736,2.715,0.312,5.245-0.184c2.536-0.506,6.156,3.174,8.686,6.415c2.534,3.246,2.115,5.742,3.8,5.742
			c1.693,0,2.113,2.739,2.113,3.74c0,0.996-3.798,3.242-5.913,3.742c-2.11,0.502-2.11,2.998,1.268,2.248
			c3.379-0.75,1.898-2.248,4.013-2.995c2.11-0.753,4.225,0.995,2.325,3.99c-1.905,2.988-5.706,3.241-2.325,3.735
			c3.379,0.507,1.478-0.494,3.379-3.484c1.898-2.992,1.683-1.996,2.956-1.996c1.269,0,4.006,0.75,5.067,1.745
			c1.061,0.996,3.795,2.494,5.488,3.735c1.686,1.254,3.801,0.75,5.067,0.253c1.266-0.496,4.857,1.498,6.123,3.49
			c1.266,2.004,4.439,2.25,5.91,2.998c1.479,0.747,3.803,3.739,4.013,6.235c0.212,2.493-2.32,7.736-2.534,8.985
			c-0.203,1.242-3.582,5.732-6.757,8.73c-3.164,2.991-1.264,6.486-1.052,7.981c0.208,1.497-2.112,6.981-1.478,8.233
			c0.632,1.246-0.847,3.991-2.113,5.739c-1.268,1.748-2.112,4.984-2.954,6.479c-0.846,1.5-3.59,1.001-6.123,1.748
			c-2.529,0.748-3.807,1.5-3.807,1.5s-4.428,2.496-6.96,4.493c-2.532,1.988,0.837,5.484-0.429,8.229
			c-1.264,2.745-2.298,0.29-3.567,3.528c-1.263,3.244-2.132,2.713-3.19,3.458c-1.052,0.75-1.686,2.74-1.898,4.737
			c-0.205,1.996-2.318,3.992-5.064,6.987c-2.747,2.99-4.44,2.496-7.392,1.495c-2.958-0.998-2.532-9.477-2.958-8.234
			c-0.418,1.247-1.872,5.567-1.455,6.322c0.42,0.743,3.36,3.661,4.413,4.408c1.054,0.748,0.844,1.992,0,3.246
			c-0.846,1.242-3.163,5.74-4.01,5.986c-0.846,0.248-7.389,1.249-8.657,0.499c-1.264-0.745-1.898,1.748-1.691,3.248
			c0.213,1.493,1.264,3.23-1.053,2.736c-2.328-0.493-5.491-2.243-5.491-1.001c0,1.254,0.634,3.998,1.9,3.998
			c1.263,0,2.534-1,1.9,0.746c-0.637,1.748-2.322,3.245-3.166,3.993c-0.849,0.753-1.9,3.239-4.013,4.987
			c-2.113,1.748-2.113,2.744-1.688,3.492c0.422,0.748,3.588,0.25,4.22,0.748c0.632,0.498-0.632,3.997-1.476,4.745
			c-0.844,0.747-4.435,4.234-5.913,5.232c-1.48,1.001-1.48,3.999-1.054,5.494c0.42,1.495,3.798,5.237,5.696,5.987
			c1.905,0.748,5.913,0.496,5.494,1.244c-0.422,0.745-5.067,1.495-5.699,1.746c-0.632,0.248-4.015,1.249-5.705,1.249
			c-1.684,0-4.857-1.997-5.489-1.997s0.427-0.998,2.532-2.992c2.11-1.996-0.839-4.241-1.263-1.495
			c-0.425,2.741-1.269,3.489-2.323,3.489c-1.058,0-2.327-1.748-2.959-2.498c-0.631-0.748-3.381-1.492-2.951-4.487
			c0.417-2.995-1.269-2.744-2.535-3.991c-1.271-1.247,1.688-2.243,1.266-3.497c-0.424-1.242-2.324-0.494-2.537-2.243
			c-0.209-1.743,1.691-4.239,1.903-4.986c0.21-0.748-1.271-2.248-1.478-3.492c-0.212-1.253,0.846-2.495,2.322-4.485
			c1.476-2.002,2.532-4.495,2.532-5.245c0-0.748-1.056-3.492-1.056-5.489c0-1.988,1.056-2.738,1.48-5.487
			c0.423-2.745-1.48-1.744-1.48-3.991c0-2.243,2.115-1.495,1.69-3.738c-0.422-2.245,1.059-3.748,1.691-5.245
			c0.632-1.498,1.266-3.988,2.112-5.736c0.847-1.748-0.846-5.735-0.846-6.485c0-0.745,2.744-1.746,1.481-3.243
			c-1.269-1.5,1.104-1.995,2.375-3.244c1.264-1.249-0.897-5.487-0.263-9.976c0.632-4.495,1.266-12.226,1.266-12.974
			c0-0.75,0.21-3.743-0.846-5.739c-1.054-2-2.32-3.494-3.801-4.244c-1.478-0.748-3.379-2.998-4.437-3.239
			c-1.052-0.256-7.442-2.355-7.442-5.853c0-3.492-2.267-6.376-2.691-8.87c-0.422-2.491-3.589-7.982-3.801-10.475
			c-0.212-2.494-4.647-3.241-5.279-5.988c-0.631-2.747,0.941-4.526,1.36-6.272c0.425-1.751-0.306-5.701-0.513-6.948
			c-0.215-1.248,1.895-5.367,3.164-6.114c1.266-0.75,3.595-3.364,4.432-3.364c0.847,0,0.637-2.75,1.481-5.494
			c0.846-2.744-0.42-6.479-1.054-6.986c-0.632-0.494-1.264-3.739-2.325-4.733c-1.054-0.998-3.164-0.501-3.164-0.501
			s0.417,2.242-1.48,3.496c-1.901,1.244-2.323-0.253-2.954-1c-0.635-0.75-2.957-1.001-4.013-2.246
			c-1.059-1.251-2.747-2.992-4.015-3.742c-1.269-0.75-4.346-1.399-4.134-4.392c0.21-2.99-1.562-4.839-2.411-5.334
			c-0.842-0.507-2.53-1.751-3.589-1.001c-1.056,0.746-2.954-1.497-4.434-1.249c-1.478,0.251-4.433-2.995-5.489-4.247
			c-1.054-1.246-1.9-2.992-3.798-2.992c-1.905,0-2.115,0.747-3.379,2.496c-1.268,1.748-3.171-1.244-3.802-1.995
			c-0.632-0.742-3.709,0.504-6.034,0.504c-2.322,0-3.381-4.771-3.465-5.739c-0.321-3.723-6.76-3.745-8.238-4.741
			c-1.478-1.001-2.959-4.745-2.325-5.736c0.634-0.998-1.054-4.244-1.054-4.244s-2.959-3.994-4.01-3.994
			c-1.056,0-4.437-6.979-6.34-8.975c-1.898-1.997-6.328-6.494-7.177-8.737c-0.841-2.243-1.056-5.735-3.161-3.986
			c-2.115,1.743-0.429,3.489,1.683,5.481c2.113,2.001,1.693,3.998,4.647,6.74c2.959,2.749,1.691,5.488,2.959,6.73
			c1.264,1.253,5.699,4.244,3.796,6.241c-1.898,1.999-3.796-2.496-4.645-2.745c-0.844-0.253-2.744-0.75-2.532-2.243
			c0.215-1.495-1.69-2.749-3.169-4.991c-1.475-2.245-2.11-0.995-4.007-0.995c-1.901,0-0.213-2.744,0.839-3.994
			c1.058-1.246-1.052-2.992-2.318-3.489c-1.266-0.506-2.961-6.236-4.644-9.733c-1.695-3.497-2.959-5.232-4.857-4.992
			c-1.9,0.253-5.043-1.642-6.309-2.643c-1.266-0.998-0.873-6.583-2.983-9.079c-2.112-2.496-4.012-7.23-3.8-9.979
			c0.207-2.744,0.841-9.731,0.841-11.471c0-1.751-1.627-5.067-1.627-5.815c0-0.747-0.485-2.922-1.327-3.166
			c-0.844-0.251-3.588-2.701-5.491-2.701c-1.897,0-2.744-3.538-2.11-5.288c0.635-1.742-1.688-4.734-2.744-4.734
			c-1.059,0-2.747-3.246-3.379-4.992c-0.634-1.748-2.322-1.748-1.902-0.752c0.422,1-0.212,2.746,0.846,3.248
			c1.056,0.497,1.903,4.488,1.056,4.984c-0.846,0.504-2.749-1.497-4.859-2.741c-2.112-1.247-1.268-6.239-1.268-7.488
			c0-1.247-2.954-2.494-4.223-2.494c-1.266,0-2.532,0.251-2.742-2.992c-0.212-3.246-4.015-4.99-5.281-4.99s-8.38-2.426-10.492-2.426
			c-2.108,0-5.339-3.065-6.61-2.064c-1.266,0.998-3.586-1.748-4.855-1.748c-1.268,0-0.593,3.393-2.922,5.139
			c-2.323,1.746-3.835-1.648-5.101-0.401c-1.263,1.25-4.434,2.499-3.378-0.494c1.051-2.997,1.051-3.497-0.632-2.749
			c-1.693,0.747-2.113,2.749-2.113,3.998c0,1.247-2.956,3.239-2.956,3.239s2.744,0.253,3.803,0c1.051-0.244,0.207,2.749-0.847,3.494
			c-1.053,0.75-2.532,2.742-4.224,2.245c-1.689-0.499-1.903-2.245-2.955-2.496c-1.058-0.251-2.213,3.222-6.014,5.465
			c-3.803,2.25-4.334-0.972-5.812-0.224c-1.478,0.747-6.757,2.997-8.659,3.243c-1.898,0.248-1.479-2.744-0.418-2.744
			c1.052,0,5.065-2.248,6.118-2.996c1.059-0.747,5.704-2.744,6.97-3.491c1.268-0.748,3.378-1.992,2.537-3.492
			c-0.844-1.498-3.591,0.752-3.591,0.752s-2.11-2.25-2.745-2.749c-0.634-0.499-1.902,1.997-1.902,1.997s-2.744-0.499-2.11-3.244
			c0.634-2.744-1.479-2.744-1.898-1.495c-0.429,1.247-4.013,3.241-4.225,1.997c-0.215-1.249-3.381-3.747-4.225-5.742
			c-0.847-1.989,0.844-2.243,2.744-3.991c1.901-1.743,4.647-2.245,6.97-1.992c2.324,0.249,3.8-2.995,2.956-3.251
			c-0.846-0.245-2.322-0.499-3.588,0.75c-1.269,1.252-4.437,1.001-4.437,1.001s-4.645,0-6.543-1.495
			c-1.9-1.502-2.956-3.747-2.956-3.747s3.802-1.744,6.757-1.988L165.639,67.169z M359.052,141.517
			c2.107,0.274,2.107-3.239,1.898-4.242c-0.208-0.998-0.208-5.235,0.639-5.988c0.836-0.747,1.898-2.992,4.22-3.243
			c2.322-0.249,3.8,1.751,3.586,3.996c-0.213,2.242,0.422,4.488,1.268,4.488c0.847,0,3.379-1.746,2.532-3.244
			c-0.844-1.498,0.634-6.489,0.634-4.739c0,1.749,1.693,2.993,2.747,2.742c1.056-0.248-1.054-4.738-2.534-4.987
			c-1.481-0.25-4.433-0.25-5.064,0c-0.635,0.249-4.225-1.251-5.918-1c-1.686,0.253-4.218,1-5.065,2.995
			c-0.844,1.999,0,5.737-0.214,7.232C357.576,137.023,357.15,141.269,359.052,141.517 M370.875,141.517
			c0.483,1.138,2.745,0.251,4.013-1.249c1.266-1.495,4.013-1.99,4.859-3.244c0.837-1.244,1.474-0.991,3.581-1.994
			c2.115-0.998,3.806-1.242,2.962-2.491c-0.847-1.252-5.279,0-5.911-0.499c-0.632-0.502-5.071,5.486-5.071,5.486
			s-3.798,1.746-4.011,2.493C371.087,140.769,370.241,140.019,370.875,141.517 M348.916,122.309c0,1.343,2.108,1.498,3.376,0.748
			c1.266-0.748,3.169-1.244,4.013-1.495c0.846-0.253,0.424,1.244,2.322,1.244c1.901,0,4.225,0.745,4.86,0.504
			c0.634-0.253,2.529-3.243,1.051-3.497c-1.478-0.248-3.796-1.994-5.064-3.492c-1.264-1.495-4.225,1.997-6.97,3.244
			C349.758,120.813,348.916,120.316,348.916,122.309 M262.343,114.073c-1.724-0.675,0.634,2.995,1.69,3.745
			c1.054,0.75,3.169,0.75,3.381,1.994c0.205,1.252,0.839,4.245,1.898,3.994c1.056-0.256,1.056-2.993,0.212-3.994
			c-0.844-0.995-4.012-3.993-4.644-3.993C264.246,115.819,262.977,114.324,262.343,114.073"/>
		<path fill="#FFFFFF" d="M366.65,79.815c-0.574,0.745,2.532,1.828,3.096,0.83C370.311,79.649,368.058,77.98,366.65,79.815"/>
		<path fill="#FFFFFF" d="M374.818,81.308c-2.24,0.757-0.142,2.66,1.269,1.997C377.49,82.642,376.786,80.645,374.818,81.308"/>
		<path fill="#FFFFFF" d="M269.806,40.734c-0.287,1.008,1.261,0.991,3.094,0.991c1.828,0,4.789,0,5.636-0.497
			c0.841-0.494,5.062-1.661,4.924-0.166c-0.145,1.5,1.686,3.824,2.67,3.492c0.991-0.336,2.958-2.491,3.943-1.662
			c0.988,0.832,1.128,2.824,2.114,3.323c0.987,0.502,3.659,0.502,4.925,0c1.266-0.499,4.789-0.499,6.339-0.166
			c1.546,0.34,6.051,1.334,6.473,0.34c0.42-1.001,1.685-1.17,1.83-2.171c0.138-1,0.842-4.157,0.842-4.157s-0.842-1.823-2.252-0.996
			c-1.404,0.83-1.831,1.336-3.097,0.996c-1.266-0.33-1.266-2.995-3.518-2.491c-2.253,0.494-2.675,1.997-3.374,2.658
			c-0.709,0.667-2.255,1.162-2.817,0.834c-0.561-0.328-3.802-2.496-3.802-2.496s-6.76-0.328-7.037-1.331
			c-0.282-0.994-1.406-2.658-4.507-2.322c-3.099,0.33-8.446,2.495-9.292,2.495c-0.842,0,0.989,1.99-0.14,1.99
			C271.632,39.398,270.228,39.232,269.806,40.734"/>
		<path fill="#FFFFFF" d="M293.735,33.915c-1.63,0.637-1.266,2.493-0.14,2.493c1.124,0,3.943-1.165,4.782-0.335
			c0.849,0.83,2.962,0.169,2.814-0.666c-0.137-0.829,0.847-4.162-0.837-4.323C298.66,30.915,296.268,32.912,293.735,33.915"/>
		<path fill="#FFFFFF" d="M312.738,31.749c-0.217,1.189,1.124,2.166,2.814,2.166c1.693,0,5.349-1.004,5.629-0.174
			c0.282,0.837-0.136,1.502,1.83,1.83c1.977,0.335,2.814,0.67,3.943,0.67c1.128,0,0.702-2.167-0.282-3.663
			c-0.984-1.495-0.702-1.323-3.234-2.162c-2.537-0.83-5.072-0.83-6.757-0.666C314.988,29.919,313.16,29.419,312.738,31.749"/>
		<path fill="#FFFFFF" d="M315.552,39.398c-1.063,1.1,0,4.49-0.422,4.82c-0.42,0.336,0.14,1.831,1.269,1.498
			c1.126-0.328,1.685-3.487,2.532-3.487c0.846,0,5.209-1.167,5.91,0.663c0.707,1.826,0.707,0.996,2.677,1.167
			c1.968,0.159,3.518-2.324,3.661-3.164c0.14-0.834-0.987-2.495-3.661-2.163C324.841,39.065,316.682,38.239,315.552,39.398"/>
		<path fill="#FFFFFF" d="M320.764,48.212c-0.979,0.738-0.427,3.164,1.129,3.323c1.545,0.174,4.22-1.16,4.497-0.159
			c0.282,1.001,1.266,5.486,3.803,3.991c2.534-1.498,2.395-2.831,3.099-2.99c0.701-0.174-0.145-3.832-1.269-4.664
			c-1.126-0.83-4.786-0.33-5.771,0.169C325.266,48.384,322.31,47.051,320.764,48.212"/>
		<path fill="#FFFFFF" d="M336.667,49.712c0.164,0.453,1.269,1.324,3.101,0.996c1.823-0.333,4.498-0.668,5.766-0.83
			c1.269-0.166,1.551-2.667,0.142-2.828c-1.41-0.167-2.529-1.662-3.798-1.163C340.61,46.39,336.244,48.545,336.667,49.712"/>
		<path fill="#FFFFFF" d="M336.243,42.724c-0.612,1.751,5.636,2.665,4.932,0.668C340.47,41.391,336.95,40.735,336.243,42.724"/>
		<path fill="#FFFFFF" d="M337.372,34.24c-1.785-0.509-4.784-1.158-4.784-1.662c0-0.494-0.849,2.335,0.704,3.164
			c1.548,0.83,4.08,2.323,5.913,3.162c1.828,0.827,5.344,0.991,6.472,2.657c1.126,1.657,4.929,2.993,4.929,2.993l4.505,0.504
			c0,0,3.099-0.839,6.33-0.504c3.244,0.333,8.023,0.834,10.7,0.666c2.677-0.162,3.099-1.16,3.381-1.829
			c0.282-0.667-4.929-2.001-6.193-1.83c-1.271,0.164-8.452,0.164-10.56,0c-2.115-0.171-4.784-0.171-6.477,0
			c-1.686,0.164-2.954-1.329-4.223-2.163c-1.266-0.832-4.08-3.492-5.768-3.827C340.611,35.243,340.893,35.243,337.372,34.24"/>
		<path fill="#FFFFFF" d="M513.986,68.833c-0.564,1.114-1.686,1.167-0.564,3.497c1.128,2.324,1.975,3.656,2.959,3.492
			c0.983-0.167,4.362-0.336,4.789,0.998c0.42,1.331,1.546,2.501,3.935,1.659c2.397-0.83,4.363-1.324,4.927-2.325
			c0.564-0.998,4.37-1.162,4.37-1.162s3.096-2.829,1.965-3.991c-1.126-1.167-3.793-2.002-5.069-2.168
			c-1.266-0.164-2.534,1.167-5.346,1.167c-2.814,0-4.642,1.329-5.771,0C519.057,68.669,514.406,68.003,513.986,68.833"/>
		<path fill="#FFFFFF" d="M394.049,35.901c1.551,1.334,2.45,0.506,4.382,1.001c1.927,0.499,3.47,4.16,4.502,4.659
			c1.03,0.502,2.445,0,3.089-1.001c0.642-0.993,1.541-4.488,1.541-4.488s0,3.326,1.548,3.989c1.541,0.673,5.405-0.494,6.437-0.33
			c1.027,0.164,7.077,1.164,8.751,2.158c1.673,1.003,5.785,1.669,6.95,3.827c1.155,2.161,1.285,9.649,1.927,10.478
			c0.644,0.834,2.831-2.66,3.347-3.485c0.516-0.839,3.222-0.333,4.121,0.825c0.9,1.165,2.954,3.994,2.831,5.158
			c-0.135,1.16-0.516,2.991-1.29,2.325c-0.767-0.666-2.057-0.497-1.541-1.83c0.516-1.329,0.765-4.153-0.26-4.153h-1.93
			c0,0-1.931-0.668-3.216,1.828c-1.288,2.496-0.261,4.994,0.643,4.994c0.9,0,2.962,0,2.962,0.654c0,0.672-2.19,2.669-2.062,3.832
			c0.133,1.167,1.801,5.153,2.318,5.987c0.513,0.828,3.216,1.662,3.986,1.831c0.774,0.166-1.799,0.325-1.16,1.495
			c0.651,1.165,1.673,3.986,3.091,4.654c1.413,0.668,5.402,3.658,5.921,4.992c0.516,1.331,3.602-0.996,4.251-1.162
			c0.642-0.162,0.511,3.491,2.318,3.658c1.796,0.161,2.44-0.333,3.986-1.83c1.543-1.496,1.16-3.49,1.285-4.99
			c0.13-1.498,0-2.66,1.671-2.165c1.674,0.496,2.573-0.333,2.45-1.992c-0.128-1.664-1.543-3.663,1.156-4.163
			c2.703-0.494,4.118-2.657,5.794-2.657c1.674,0,6.304,0.834,6.82,0c0.516-0.827,2.713-5.8,4.131-5.961
			c1.418-0.174,5.139,0.639,8.481-0.027c3.348-0.663,6.958-3.157,8.112-2.995c1.156,0.164,3.987,0.164,3.09-0.83
			c-0.9-1-2.192-3.325-4.121-3.325c-1.932,0-2.251-5.129-1.742-5.129c0.514,0,5.212,1.968,5.086,3.632
			c-0.123,1.663,0.777,3.822,3.35,3.163c2.573-0.67,2.182-3.163,1.673-3.829c-0.518-0.666-0.902-2.335-1.415-3.492
			c-0.516-1.167-1.744-4.818,0.962-5.153c2.703-0.336,7.789,3.487,7.657,0.829c-0.126-2.665,0-5.493,0.771-6.988
			c0.777-1.495,2.448-2.494,1.548-2.993c-0.906-0.495-2.061,0.668-2.963-1.828c-0.897-2.496,0.776-4.326,1.801-5.325
			c1.03-0.993,6.434-7.483,9.398-8.481c2.954-0.998,5.021-4.823,2.954-5.653c-2.052-0.834-6.176-2.329-8.874,0.331
			c-2.706,2.665-4.247,5.153-7.334,4.324c-3.089-0.83-3.562-5.236-5.315-7.507c-2.549-3.294-0.993-9.791-3.694-9.289l-2.706,0.501
			c0-0.002-3.169-0.67-5.125-0.174c-2.575,0.654-4.241,2.48-5.71,2.084c-2.884-0.774-5.474,1.008-6.205,1.198
			c-6.303,1.631-11.372-0.6-12.303-0.754c-0.726-0.128,4.418,0.699,8.402,0c3.06-0.543,8.208-1.778,10.738-2.274
			c2.53-0.497,0.494-1.681-0.398-1.799c-3.26-0.425-8.201-2.004-12.101-2.241c-3.067-0.18-5.042,0.919-8.105,1.011
			c-3.916,0.118-8.587-0.152-11.655,2.079c-2.698,1.96-6.166,2.17-6.448,2.529c-1.539,1.995-2.954,6.986-4.37,5.658
			c-1.415-1.329-1.676-4.657-3.472-3.328c-1.807,1.329-0.133,4.656-1.681,6.984c-1.541,2.331-5.918,1.996-7.204,1.167
			c-1.285-0.83-2.572-1.493-7.721-1.167c-5.151,0.337-10.813,2.331-9.656,4.326c1.16,1.994-2.315,3.159-3.212,2.165
			c-0.904-1.001-5.023,1.158-4.765,3.157c0.258,1.992-0.644,4.324-2.831,3.825c-2.19-0.5-3.733,1.164-3.864,2.824
			c-0.125,1.666-5.02,2.828-5.401,2.828C398.041,34.074,391.734,33.915,394.049,35.901"/>
		<path fill="#FFFFFF" d="M365.169,197.4c-0.207,2.491,1.905,1.744,4.44,1.744c2.532,0,6.966-0.495,7.81,0.747
			c0.847,1.252,4.645,3.244,5.701,4.244c1.054,0.994,4.433,1.245,4.647,0.244c0.212-0.991-2.324-3.74-3.805-3.487
			c-1.476,0.251-4.645-1.748-6.33-3.492c-1.693-1.748-4.86-1.748-6.123-1.748C370.24,195.652,365.169,197.4,365.169,197.4"/>
		<path fill="#FFFFFF" d="M380.583,190.414c-1.927,0.248-1.471,2.988,0.846,2.491C383.76,192.406,382.487,190.158,380.583,190.414"
			/>
		<path fill="#FFFFFF" d="M381.645,211.079c-1.936,0.409-1.481,4.86,0.842,4.049C384.809,214.317,383.543,210.669,381.645,211.079"
			/>
		<path fill="#FFFFFF" d="M409.512,208.329c-1.929,0.41-1.471,4.869,0.846,4.052C412.686,211.573,411.415,207.923,409.512,208.329"
			/>
		<path fill="#FFFFFF" d="M390.302,209.376c0,0,2.32,0.494,3.796,0.494c1.481,0,2.327,1.001,3.593,1.751
			c1.266,0.748,3.593-0.998,4.43-0.998c0.846,0,1.903,2.99,2.115-0.251c0.212-3.246-2.532-4.741-4.225-5.243
			c-1.688-0.499-3.586,0-4.852,0.251C393.888,205.631,390.302,209.376,390.302,209.376"/>
		<path fill="#FFFFFF" d="M567.242,160.478c0.848-0.494,4.221-1.748,6.125-2.744c1.9-1.001,8.025-3.494,8.862-3.494
			c0.847,0,11.403,0.25,12.882-0.5c1.479-0.749,7.196-1.806,8.88,3.68c1.685,5.487-1.908,3.311-3.594,4.3
			c-1.692,1.001,0.632,3.246,1.471,3.246c0.847,0,3.796,3.243,5.277,3.243c1.479,0,5.071,1.749,5.071,1.749s3.586,3.243,5.49,3.243
			c1.901,0,5.117,3.873,7.23,1.382c2.104-2.498,3.113-7.62,5.228-7.121c2.11,0.504,4.436,2.496,7.174,2.496
			c2.742,0,7.816-0.499,8.663,0.747c0.849,1.247-5.704,5.488-5.283,6.486c0.427,0.991,1.272,0.75,3.386-2.244
			c2.104-2.995,5.275-2.995,7.808-3.74c2.535-0.75,3.807,3.986,4.229,5.48c0.417,1.495,2.318,4.242,3.798,7.488
			c1.479,3.243,2.946,7.731,4.642,11.229c1.693,3.496-0.198,10.502,1.497,12.744c1.687,2.25,6.106,4.221,7.16,7.213
			c1.059,2.996,3.591,5.985,4.437,6.238c0.85,0.246,4.436,5.981,4.647,7.477c0.205,1.497-1.268,4.746,2.103,4.997
			c3.389,0.248,6.341-1.751,7.399-2.248c1.053-0.494,9.289-4.244,10.343-2.749c1.059,1.497-1.474,7.988-1.686,9.737
			c-0.212,1.743-6.34,10.226-6.552,12.47c-0.205,2.251-3.799,6.244-6.116,6.74c-2.327,0.494-7.185,7.485-8.872,9.73
			c-1.69,2.243-4.438,7.227-5.703,7.727c-1.266,0.502-2.24,7.132-1.606,8.135c0.633,0.987,0.761,5.592,2.665,7.589
			c1.9,1.996,2.532,3.491,1.686,5.239c-0.844,1.739,0.427,5.735,0,8.979c-0.419,3.239-4.01,6.473-4.856,7.466
			c-0.837,1.001-4.852,3.763-6.545,6.253c-1.695,2.496-3.162,4.743-2.744,5.986c0.417,1.256,2.112,7.484,1.896,8.98
			c-0.2,1.5-5.802,2.269-7.495,3.263c-1.691,1,0.75,4.225,1.167,6.219c0.42,1.994-2.956,5.245-4.435,6.988
			c-1.483,1.746-5.493,7.729-8.23,9.977c-2.747,2.25-6.704,1.797-9.451,1.548c-2.739-0.251-7.236,2.197-8.293,3.442
			c-1.059,1.251-2.527,0.998-4.64-0.244c-2.115-1.254-2.327-2.995-2.534-5.747c-0.212-2.744-0.847-4.488-0.847-4.488
			s-0.632-4.236-2.539-6.23c-1.898-2.002-2.532-4.244-3.583-5.747c-1.055-1.492,1.953-5.749,1.74-8.493
			c-0.215-2.747-3.855-5.968-4.907-7.717c-1.06-1.75-3.173-6.489-4.021-8.238c-0.836-1.745-1.897-5.231-1.685-10.222
			c0.217-4.989,2.355-7.91,4.049-9.41c1.697-1.495,1.024-3.313-0.456-6.303c-1.478-2.998,0.217-7.994-1.061-9.733
			c-1.265-1.746-3.223-11.493-5.55-12.988c-2.325-1.498-4.788-1.483-3.525-4.975c1.269-3.495,0-6.984,2.114-9.232
			c2.11-2.241,1.052-3.737-1.268-5.239c-2.325-1.497-1.479-2.243-3.379-0.494c-1.905,1.743-4.438,2.744-5.908,0.993
			c-1.48-1.746-1.061-4.49-3.808-6.487c-2.747-1.989-7.144-1.307-8.204-0.812c-1.051,0.504-3.195,4.803-6.156,5.303
			c-2.952,0.504-5.065-0.249-8.024-0.249c-2.951,0-5.491,0.249-5.91,1.999c-0.417,1.744-1.052,2.745-2.952,0.996
			c-1.907-1.743-5.703-5.739-5.703-5.739s-3.509-6.88-4.568-9.883c-1.053-2.99-4.721-3.089-8.732-5.336
			c-4.012-2.245-1.692-4.739-2.114-7.232c-0.422-2.496-2.532-3.495-1.481-3.745c1.059-0.251,0.846-1.992,3.166-5.488
			c2.327-3.49,0.847-7.235,0.429-9.231c-0.429-1.995-2.536-4.985-0.429-8.231c2.115-3.242,3.437-10.981,5.122-12.979
			c1.695-1.994,6.707-3.988,9.027-5.23c2.324-1.254,0.846-4.489,2.112-8.232c1.264-3.743,3.171-5.491,3.805-5.491
			c0.632,0,2.976-2.59,5.482-4.235C561.96,159.477,566.398,160.975,567.242,160.478 M659.519,263.013
			c-0.574-1.078-4.228-0.755-4.859,0.499c-0.632,1.25-1.266,6.979,0.632,7.483C657.191,271.492,660.572,265.008,659.519,263.013"/>
		<path fill="#FFFFFF" d="M697.94,299.931c-2.647-0.895-2.954,3.249-5.063,5.99c-2.113,2.74-4.434,4.982-5.282,4.741
			c-0.846-0.256-5.485,1.746-4.007,5.483c1.468,3.743,1.263,7.488-0.215,9.236c-1.481,1.746,1.266,6.73,0.849,9.479
			c-0.429,2.739,0.629,4.485,3.591,4.485c2.951,0,4.011-1.242,5.276-4.485c1.266-3.249,1.471-6.489,2.739-9.229
			c1.271-2.749,2.328-8.489,2.959-9.981c0.635-1.498,1.904-6.243,1.692-8.982C700.268,303.927,699.422,300.43,697.94,299.931"/>
		<path fill="#FFFFFF" d="M774.589,235.82c-1.367,0.715-2.771,12.719-0.236,13.72c2.537,1.001,4.253-7.487,3.409-8.732
			C776.913,239.563,776.493,234.819,774.589,235.82"/>
		<path fill="#FFFFFF" d="M596.805,142.763c-1.992,0-2.959,3.75-1.693,4.992c1.266,1.244,2.539,1.001,3.594-0.748
			C599.764,145.259,597.858,142.763,596.805,142.763"/>
		<path fill="#FFFFFF" d="M580.758,146.756c-0.511,0.943,1.684,1.252,2.105,0.251C583.291,146.006,582.229,144.009,580.758,146.756"
			/>
		<path fill="#FFFFFF" d="M605.882,151.001c-0.772,0.538,1.264,2.243,2.324,2.74c1.062,0.499,1.9,1.996,2.746,2.244
			c0.845,0.254,3.584,0,2.745-2.495c-0.847-2.489-2.745-2.489-3.379-2.489S606.94,150.251,605.882,151.001"/>
		<path fill="#FFFFFF" d="M555.416,100.6c-1.915,0.379-2.113,2.749-3.381,2.749c-1.264,0-2.744,0.499-2.317,2.245
			c0.419,1.749,1.266,2.993,0,3.738c-1.266,0.748,0.207,3.743,1.897,3.991c1.688,0.253,3.594-1.242,5.067-1.989
			c1.481-0.748,3.591-2.246,3.591-4.493c0-2.248-0.42-4.244-1.266-5.24C558.163,100.6,556.682,100.354,555.416,100.6"/>
		<path fill="#FFFFFF" d="M557.741,93.122c-1.707,0.671-1.059,3.236-0.212,4.488c0.846,1.244,2.324,3.991,4.432,4.987
			c2.11,1.001,6.547,1.997,4.864,2.997c-1.695,0.999-6.581,5.911-7,7.406c-0.427,1.495,5.519,0.825,5.519,0.825
			s-1.273,1.748-0.214,2.243c1.054,0.501,1.695-1.744,3.378-1.744c1.688,0,5.064,1.249,6.76,1.249c1.689,0,4.432-2.744,4.223-4.49
			c-0.213-1.751-2.322-4.49-4.223-5.489c-1.9-1-4.016-5.493-5.279-6.487c-1.266-1,4.69-4.304,3.21-6.045
			c-1.479-1.748-5.958-0.687-7.647-1.939c-1.686-1.249-3.164,0.251-4.225,1.748C560.272,94.366,559.007,92.618,557.741,93.122"/>
		<path fill="#FFFFFF" d="M571.674,127.795c-0.212-2.243-4.432-4.245-7.177-4.739c-2.744-0.497-2.327-1.992,0.632-2.243
			c2.962-0.25,2.747-1.495,5.279-1.996c2.535-0.5,5.07-1.247,6.973-1.496c1.897-0.253,1.897-2.247,1.897-3.745
			c0-1.495,5.278-1.999,5.278-1.999s2.959-3.236,4.643-4.736c1.691-1.498,4.646-1.247,6.975-0.499
			c2.321,0.745-0.216-1.749-1.062-2.993c-0.847-1.249-0.208-3.996,0.426-5.491c0.636-1.5,4.43-2.247,5.491-1.746
			c1.054,0.499,0,2.742,0.205,4.744c0.215,1.994,1.897,3.243,1.897,3.243l1.696-0.251h2.744c2.747,0,2.889,0.061,5.001-0.689
			c2.11-0.748,3.656,0.19,4.505-0.309c0.837-0.502,3.162-0.502,6.328,0.748c3.164,1.246,1.478-2.248,2.11-4.245
			c0.634-1.996,1.899-5.483,4.015-5.24c2.112,0.253,3.803,1.749,5.489,0.504c1.688-1.251-3.167-2.995-3.167-3.742
			c0-0.75,4.013-0.75,7.599-1.001c3.593-0.249,5.703,0,7.398-0.495c1.684-0.499-1.269-3.998-1.909-3.998
			c-0.623,0-4.86,0.499-6.971,0.253c-2.104-0.253-4.43,1.498-6.327,1.997c-1.9,0.499-2.327-2.998-3.38-4.493
			c-1.06-1.495-1.481-4.234,1.268-5.734c2.744-1.498,7.604-4.746,8.439-6.241c0.85-1.495-3.37-1.245-7.381-1.001
			c-4.02,0.251,0.631,1.5-3.174,5.992c-3.796,4.491-5.695,1.496-8.657,4.491c-2.957,2.988-0.844,3.241,1.907,4.242
			c2.74,0.993,0.422,3.993-0.212,4.738c-0.634,0.748-3.805,3.497-3.376,5.489c0.417,1.992-2.115,3.243-2.115,3.243
			s-7.817,1.997-9.299,2.243c-1.468,0.256-1.896-1.247-1.468-2.742c0.417-1.5-1.698-4.987-1.9-7.232
			c-0.213-2.248-3.379,0.996-3.591,2.496c-0.21,1.495-4.225,1.739-6.545,0.748c-2.327-0.999-3.593-4.744-3.164-5.492
			c0.417-0.747-1.266-4.492-1.266-5.49c0-0.994,4.929-8.26,8.941-9.261c4.018-0.993,8.787-3.465,11.534-5.951
			c2.747-2.496,4.01-5.494,4.857-6.241c0.839-0.748,15.431-9.015,20.708-10.018c5.28-0.991,16.875,5.033,18.775,5.527
			c1.9,0.495,2.958,1.243,7.604,3.244c4.644,1.994,9.034-0.183,11.984,0.318c2.959,0.5,4.483,3.673,6.389,4.674
			c1.897,1.001,0,1.748-4.654,3.489c-4.644,1.744-7.808,1.249-10.338,0.251c-2.542-1.003-4.013-1.003-2.112,0.494
			c1.897,1.498,1.266,2.248,1.466,4.491c0.218,2.249,3.177,0.255,3.808-0.246c0.632-0.502,0.632-1.495,2.962,0.246
			c2.316,1.75,3.164,0.75,4.215,0.501c1.061-0.246,0.215-2.99,0.846-3.993c0.636-0.999,3.174-0.999,3.809-1.493
			c0.632-0.494,2.104-1.244,3.369-1.497c1.266-0.254,1.061,2.245,2.33,2.99c1.263,0.75,0.629-3.244,0.201-4.232
			c-0.419-1.001-0.837-3.743-0.201-4.498c0.629-0.748,5.068-1.247,6.121-0.248c1.055,1.003-1.685,3.991-1.053,5.734
			c0.631,1.751,2.107-0.988,3.166-2.491c1.051-1.495,3.371,0,7.174-0.747c3.799-0.748,2.959-3.244,6.962-1.749
			c4.021,1.498,2.962,1.498,4.237,0c1.264-1.495,3.584,0.256,5.899-0.747c2.329-0.999,2.329,0,4.02,1.003
			c1.688,0.994,3.8-2.002,4.647-2.998c0.839-1,4.22-1,5.91-0.747c1.692,0.246,3.799,1.495,5.49,1.495
			c1.687,0,4.431,1.495,4.431,1.495s3.596,1.5,4.439,0.499c0.837-1.001-0.212-2.245-3.386-3.995c-3.166-1.737-1.9-4.73,0-4.983
			c1.905-0.253,1.693-1.495,3.174-2.496c1.48-0.996,3.373-4.741,5.064-3.991c1.688,0.748,3.169,2.243,5.28,3.49
			c2.108,1.249,0.207,2.997-0.21,4.242c-0.422,1.251,0.417,5.987,1.053,6.732c0.639,0.755-0.636,3.497-2.323,4.746
			c-1.69,1.242-4.015,3.991-3.378,4.486c0.629,0.499,5.701-2.24,5.701-2.24s3.171-4.493,4.644-5.735
			c1.479-1.257,2.957-1.257,3.376,0.246c0.43,1.495,2.747,1.994,4.86,0.996c2.109-0.996,0-1.744-0.205-3.991
			c-0.212-2.25-3.591-0.996-5.501-0.502c-1.898,0.502-3.378,2.749-4.003,2.749c-0.64,0-0.64-1.5-0.212-3.749
			c0.419-2.243-0.848-3.488-0.848-4.73c0-1.254,0.632-1.254,2.113-3.745c1.479-2.5,1.479,1.744,1.683,3.989
			c0.216,2.243,1.693,1.252,2.961,0.998c1.267-0.25,0.633-3.243,1.696-4.738c1.049-1.5,3.378-1.749,5.481,0.501
			c2.111,2.248,1.899,1.493,4.437,2.489c2.532,1.001,2.747,1.254,2.959,3.499c0.207,2.243,1.9,2.489,2.952,1.737
			c1.051-0.748,0.214-3.738-0.42-4.73c-0.632-1.003-5.703-2.749-7.396-4.497c-1.688-1.748,0.846-1.748,2.752-1.748
			c1.899,0,5.482,0.253,5.482,0.253s4.011-1.001,6.123-2.747c2.113-1.741,3.593-1.741,5.706-2.742
			c2.107-0.998,5.493-0.998,7.606-0.494c2.104,0.494,3.583-1.001,5.695-2.002c2.11-0.993,4.883-7.495,5.069-1.242
			c0.026,0.803,5.906,1.99,6.752,1.746c0.846-0.253,2.966-0.574,6.123-2.498c6.12-3.736,0.822-5.501,3.164-1.997
			c0.816,1.221,3.388-0.996,7.82,1.247c4.43,2.25,0,0,1.264,1.502c1.266,1.493,1.899-0.253,4.858-0.752
			c2.959-0.497,4.859,0,6.756,0.251c1.899,0.248,6.125,0.248,8.024,1.743c1.901,1.498-1.266,4.739-2.325,5.74
			c-1.053,0.996,1.691,1.743,2.537,1.497c0.842-0.253,7.812,0,10.976,0.495c3.174,0.501,4.439,2.25,5.911,2.25
			c1.478,0,3.805-0.751,4.648-1.749c0.85-0.996,6.118-1.497,7.813-1.746c1.686-0.25,6.338,0,6.97,0.497
			c0.634,0.499,1.266,2.998,1.266,4.992c0,2.001,1.9,3.738,3.378,3.994c1.481,0.25,4.224-2.996,5.281-3.495
			c1.049-0.499,2.315,2.25,2.947,1.502c0.637-0.747,5.921,0.244,8.036-1.003c2.102-1.246,3.371,0,4.429-0.499
			c1.054-0.499,2.745-3.244,2.745-4.242c0-0.996,0.849-1.746,0-3.238c-0.844-1.498-3.803-0.507-6.972-1.498
			c-3.164-1.001,0.135-6.198,1.061-3.497c0.523,1.524,3.371,0,5.481,0.504c2.112,0.497,1.278-0.752,2.33-0.752
			c1.061,0,4.856,1.249,6.962,1.249c2.112,0,3.805,2.737,3.805,2.737s-5.91,2.002-7.176,2.002c-1.267,0-0.43,1.992,0.634,1.992
			c1.051,0,2.53,0.752,4.008,1.999c1.481,1.251,8.023,0,8.865,0c0.846,0,3.385,1.251,5.917,2.992
			c2.53,1.749,4.218,2.496,4.218,2.496s3.593,0,7.184-0.494c3.584-0.504,8.238-0.504,9.072,0.244
			c0.85,0.745,3.176,1.495,4.862,3.243c1.686,1.748,2.954,1.001,5.276,0.748c2.326-0.253,4.654-0.748,6.76-0.748
			c2.113,0,9.077-0.253,10.343,1.997c1.268,2.247,2.746,1.746,2.746,1.746s1.908-3.996,2.747-4.744
			c0.847-0.747,3.591,0.504,5.275,1.496c1.693,1,9.925,0,12.034,0.506c2.112,0.494,5.071,2.99,3.386,4.987
			c-1.692,1.997,1.267,5.493,0.637,7.483c-0.637,1.994-2.329,2.242-4.022,2.742c-1.683,0.501,1.693,2.997,3.173,4.746
			c1.479,1.748-0.844,2.244-2.323,1.497c-1.481-0.75-5.277,0.251-10.134,1.746c-4.861,1.498-6.762,4.488-11.826,4.739
			c-5.071,0.25-2.958-0.251-9.286-0.251c-6.335,0-6.128,1.996-7.396,4.493c-1.266,2.491,0.636,1.996,0,3.986
			c-0.632,2.001-1.684,4.246-1.684,5.995c0,1.741-3.806,1.994-5.071,3.489c-1.269,1.5-3.381,5.24-6.974,7.98
			c-3.581,2.749-6.113,6.993-6.113,6.993s0.632-4.244,2.317-7.237s-1.898-7.237-2.112-10.48c-0.205-3.244,1.061-4.244,3.164-7.235
			c2.112-2.992,7.183-3.993,9.296-5.486c2.113-1.502,10.77-8.48,10.77-8.48s-1.69,1.244-3.798,2.243
			c-2.118,0.991-4.651,2.992-6.34,2.992c-1.688,0-1.049-2.001-1.266-3.991c-0.213-1.994-4.224-0.494-5.703,1.495
			c-1.479,1.995-4.226,3.244-7.175,5.742c-2.959,2.494-2.112,2.243-4.014,2.494c-1.906,0.248-5.07-1.249-6.542-2.494
			c-1.48-1.249-2.959,0.994-7.603,1.245c-4.646,0.248-9.931-0.5-12.036-0.251c-2.113,0.251-7.389,7.483-10.56,8.732
			c-3.169,1.249-7.18,3.494-6.121,5.242c1.054,1.746,2.952-1.5,3.799-1.5c0.846,0-0.632,3.497,1.266,3.497
			c1.9,0,2.951-1.252,4.859-1.5c1.9-0.246,3.378,1.744,3.796,4.493c0.429,2.739-0.835,4.987-1.684,8.483
			c-0.847,3.492-2.112,6.979-5.491,9.975c-3.378,2.997-8.869,8.483-9.928,9.979c-1.057,1.498-4.851,0.251-5.484-0.747
			c-0.632-1.001-2.532,2.245-4.012,2.992c-1.481,0.748-2.96,2.248-2.96,4.242c0,1.997-4.216,1.997-4.216,3.246
			c0,1.245,2.53,4.739,3.581,6.482c1.055,1.749-0.212,7.242-2.111,8.484c-1.9,1.244-2.737,2.739-5.277,1.003
			c-2.532-1.751-0.419-2.751,0.635-5.493c1.062-2.744-1.054-4.24-1.48-4.99c-0.42-0.747-2.115,1.498-2.949,1.746
			c-0.847,0.251-0.847-2.25-0.217-3.745c0.634-1.495-0.417-4.736-1.049-4.982c-0.638-0.253-4.65,3.738-6.341,3.487
			c-1.692-0.243-0.215-4.734,0.42-5.985c0.639-1.247-1.269-0.251-2.532,0.996c-1.267,1.249-4.013,3.998-5.064,3.745
			c-1.061-0.253-3.173,1.989-1.479,3.489c1.685,1.498,2.326,2.747,3.378,2.995c1.054,0.251,3.801-0.499,4.858-0.75
			c1.049-0.246,3.164,1.749,1.049,3.994c-2.106,2.247-6.539,2.501-5.692,3.996c0.839,1.497,2.951,3.74,4.644,7.229
			c1.687,3.492,1.049,7.232,1.479,9.982c0.42,2.741-6.122,8.479-8.03,10.227c-1.897,1.746-3.798,5.988-6.962,7.982
			c-3.171,2.002-9.93,3.739-10.982,2.993c-1.061-0.748-4.013,1.25-3.798,3.99c0.205,2.746,1.687,2.498,1.687,3.243
			c0,0.75-2.113,3.745-2.952,4.994c-0.847,1.242-3.805,0-3.379-3.742c0.42-3.748,2.532-5.243,2.314-6.991
			c-0.202-1.738-2.109-2.736-3.376-1.241c-1.266,1.495-5.275,5.733-5.275,5.733s1.478,4.493,3.379,6.241
			c1.896,1.749,3.163,4.235,5.705,7.979c2.529,3.745,0.632,6.984,0,9.733c-0.635,2.742-2.747,2.742-4.439,3.241
			c-1.695,0.494-2.113,1.247-2.747,2.747c-0.632,1.497-3.685,8.657-4.111,7.408c-0.419-1.247-3.065-9.661-3.065-9.661
			s-1.907-4.492-4.642-6.732c-2.749-2.243-3.799-3.242-3.799-0.992c0,2.243-1.692,6.478-1.692,7.979
			c0,1.497-3.809-4.491-3.809-6.986c0-2.492-0.632-6.736-0.417-10.722c0.212-3.994-4.435-0.258-4.435-0.258s-3.59,8.948-4.642,8.948
			c-1.062,0,0-8.196,0.204-11.191c0.213-2.99-1.051-5.737-1.683-6.733c-0.634-1.001-4.227-4.987-4.858-7.735
			c-0.633-2.744-1.901-1.744-3.164-0.243c-1.27,1.491-0.848,1.491-5.913,1.491c-5.072,0-4.86,3.743-7.399,5.988
			c-2.532,2.245-4.635,6.487-7.596,7.98c-2.957,1.495-4.224,2.992-4.224,4.741c0,1.745,1.192,7.499,0.561,9.992
			c-0.634,2.501-2.248,4.728-3.729,7.226c-1.478,2.493-2.741,6.479-4.008,6.479c-1.266,0-1.696-3.486-1.696-5.734
			c0-2.245-3.582-7.483-4.429-9.231c-0.844-1.746-4.011-9.477-4.011-9.477s-2.53-8.231-2.32-10.481
			c0.208-2.245,0.208-8.48,0.208-8.48s-3.376,3.993-4.856,3.739c-1.483-0.251-2.952-2.989-2.749-6.235
			c0.212-3.244-2.53-2.995-4.012-3.497c-1.478-0.497-3.378-4.982-4.43-4.982c-1.061,0-1.692,0-2.532,1.498
			c-0.846,1.495-5.277,1.242-6.339,1.242c-1.059,0-7.389-0.251-9.287-1.001c-1.899-0.745-4.013-5.236-5.071-5.73
			c-1.055-0.499-4.221,2.74-5.486,2.245c-1.263-0.497-3.803-2.997-6.552-4.492c-2.737-1.495-3.581-4.989-4.641-7.234
			c-1.056-2.24-4.646,1.247-4.227,3.743c0.427,2.491,5.074,5.738,5.074,7.486c0,1.739,0.844,2.243,3.161,4.486
			c2.329,2.242,0.427,3.494,1.9,3.989c1.48,0.499,3.59-1.997,5.703-3.239c2.115-1.254,1.9-2.993,2.959-2.993
			c1.053,0,0.841,3.241,2.534,3.487c1.684,0.253,6.125,3.244,7.174,5.245c1.063,1.992-1.049,3.24-1.897,4.981
			c-0.847,1.749-3.381,6.74-5.49,8.737c-2.113,1.997-4.434,4.736-7.604,5.484c-3.166,0.747-3.583,2.747-6.118,2.992
			c-2.531,0.25-9.501,4.246-10.56,4.996c-1.056,0.75-6.759,2.74-8.443,1.995c-1.694-0.75-2.327-5.739-2.959-9.481
			c-0.634-3.738-1.473-5.74-2.104-7.233c-0.635-1.497-4.439-5.488-5.286-6.235c-0.846-0.75-2.951-6.738-3.164-9.231
			c-0.214-2.496-2.532-1.502-2.951-4.239c-0.43-2.749-2.757-6.49-3.174-8.238s-4.646,0.254-6.33,0.502
			c-1.693,0.25-4.857-1.495-4.44-5.493c0.421-3.981,2.113-3.981,4.226-3.981c2.115,0,1.266-1.254,3.379-3.753
			c2.103-2.491,2.749-7.475,2.949-10.719c0.217-3.248-1.479-1.748-3.159-1.247c-1.691,0.495-4.225,1.247-5.067,0.994
			c-0.846-0.248-4.225-1.495-4.858-0.748c-0.64,0.748-4.223,0.249-5.064-0.996c-0.844-1.251-5.071-2.749-5.501-3.745
			c-0.414-0.998,0-6.981-0.844-8.483c-0.839-1.495-2.737,0.255-3.795,1.249c-1.058,1.001-4.006,1.748-3.167,2.496
			c0.847,0.747,3.591,2.245,3.379,4.234c-0.212,2.002-2.113,2.501-3.167,3.497c-1.051,1.001-4.897,4.949-5.529,3.702
			c-0.634-1.249-1.022-9.188-1.653-10.189c-0.633-0.991-2.532-3.487-3.164-5.737c-0.633-2.243-2.952-2.995-4.434-4.743
			c-1.478-1.739-5.703-4.488-7.388-6.48c-1.693-1.994-4.655-3.494-4.86-1.001c-0.212,2.498,2.962,2.993,4.226,5.489
			c1.269,2.498,4.013,3.991,5.485,4.741c1.479,0.747,5.496,3.991,5.496,3.991s-1.692,0.747-3.171,0.499
			c-1.478-0.246,0.832,5.38,0.632,7.119c-0.217,1.748-2.744-0.635-3.164-2.626c-0.427-1.999-1.692-4.245-2.533-4.992
			c-0.843-0.745-6.336-2.744-7.183-3.244c-0.846-0.499-4.43-3.243-4.85-5.488c-0.43-2.245-3.593-2.496-4.439-1.992
			c-0.846,0.494-4.013,3.234-5.491,3.234c-1.471,0-3.801-1.242-5.494-1.493c-1.683-0.243-1.896,3.243-2.531,5.24
			c-0.631,1.999-3.376,0.499-4.85,2.245c-1.48,1.751-4.02,3.499-3.384,4.995c0.64,1.495,1.691,1.495-0.207,2.739
			c-1.907,1.247-2.961,3.743-4.859,3.991c-1.9,0.251-4.428,1.247-5.491,0.499c-1.059-0.747-1.898,2.496-2.532,3.246
			c-0.634,0.753-1.696-2.243-2.745-3.494c-1.061-1.247-3.797-0.251-4.644-0.499c-0.849-0.251-1.695-2.496-2.747-3.492
			c-1.058-0.999-0.846-3.244,0-3.991c0.839-0.748,1.686-1.997,1.052-4.24c-0.63-2.247-1.052-7.239,1.061-8.232
			c2.112-1.001,7.176,0,9.709,0c2.539,0,6.88,1.036,7.603-0.502C571.462,132.538,571.887,130.045,571.674,127.795 M651.28,83.886
			c-0.718,2.351,4.86,4.244,5.911,2.496C658.25,84.633,652.332,80.399,651.28,83.886 M644.104,144.265
			c0.419,0.994,2.531-1.502,4.217-1.502s5.492,0.752,6.553-0.996c1.051-1.748,4.429-1.997,7.176-1.5
			c2.744,0.501,5.072,2.747,6.971,2.995c1.896,0.253,6.961-0.248,8.654-0.747c1.686-0.5,1.267-3.996-1.479-5.735
			c-2.747-1.751-5.071-4.49-7.601-5.493c-2.534-0.994-3.384-1.995-1.903-2.494s3.381-2.493,1.266-2.493s-4.01,0.75-4.227,1.994
			c-0.2,1.251-1.479,2.744-2.312,3.243c-0.847,0.502-2.96,2.494-3.596,1.001c-0.632-1.5-2.949-5.99-4.01-6.238
			c-1.053-0.251-2.747,0-4.014,2.493c-1.266,2.494-2.745,4.994-4.01,5.988c-1.267,0.998-2.952,3.991-1.686,4.49
			C645.37,139.77,644.104,144.265,644.104,144.265 M692.457,126.794c-2.562,2.021-3.381,4.743-2.327,6.489
			c1.06,1.746,4.011,7.235,5.491,7.736c1.479,0.497,6.757,1.496,4.647,3.743c-2.113,2.245-2.535,2.993-4.44,2.74
			c-1.9-0.242-1.053,5.987,0.425,6.489c1.48,0.499,5.913,2.247,7.394,2.496c1.479,0.246,6.338-0.502,6.121-1.997
			c-0.213-1.5-1.06-7.483-2.745-8.978c-1.692-1.502,2.328-2.997,1.266-4.244c-1.058-1.249-2.529-0.75-3.378-2.243
			c-0.849-1.5-1.264-2.992-2.532-3.996c-1.266-0.998-2.319,1.004-2.109-1.746c0.212-2.744,3.161-4.49,4.427-2.99
			c1.269,1.493,5.072,0.745,5.918,0c0.849-0.748-1.693-2.997-2.325-4.497c-0.634-1.496-4.858-2.74-5.49-2.246
			c-0.632,0.507-2.317,2.002-4.011,3.244C697.1,128.043,693.724,125.796,692.457,126.794"/>
		<path fill="#FFFFFF" d="M716.729,56.194c-1.553,1.85-4.85,1.244-7.174-0.251c-2.324-1.495-5.062-1.738-6.331-2.242
			c-1.263-0.497,0.205-3.495,1.687-4.24c1.48-0.75,5.489-2.997,8.45-4.493c2.951-1.495,3.798-4.488,5.911-4.488
			c2.111,0,12.247-2.495,13.514-1.994c1.264,0.5,7.381,0.994,8.657-1.001c1.266-1.996,5.693-0.749,4.645,1.001
			c-1.054,1.741-4.859,5.732-7.392,4.987c-2.532-0.75-9.719-0.496-12.883,0c-3.16,0.495-6.122,2.742-8.866,4.491
			c-2.747,1.748-2.113,3.745-1.055,3.99C716.946,52.204,717.997,54.7,716.729,56.194"/>
		<path fill="#FFFFFF" d="M930.42,105.845c-1.223,0.41-4.858-0.502-3.595,2.993c1.266,3.487,1.479,5.987,1.266,8.732
			c-0.203,2.746,0,8.479,0.43,9.224c0.419,0.75,2.104,2.498,3.163,1.999c1.055-0.499-0.425-5.484-0.425-6.484
			c0-1.001,1.479-2.497,2.325-2.745c0.846-0.246,0-4.49-1.059-6.241c-1.055-1.746-2.534-2.737-1.686-2.99
			c0.844-0.253,1.898-2.245,1.267-2.749C931.471,107.087,931.891,105.343,930.42,105.845"/>
		<path fill="#FFFFFF" d="M928.306,131.287c-1.563,0.456-2.113,2.995-2.113,3.743c0,0.75-5.908,2.245-4.007,4.241
			c1.895,1.997,3.805,0.5,6.754,0.249c2.952-0.249,5.703-1.242,5.703-1.242s4.433,0.241,3.801-2.245
			c-0.634-2.496-5.281-2.749-6.125-2.496C931.472,133.788,929.991,130.793,928.306,131.287"/>
		<path fill="#FFFFFF" d="M923.448,141.02c-1.555,1.105-0.632,5.493-1.897,8.484c-1.267,2.99-2.325,5.734-3.166,5.734
			c-0.85,0-5.279,1.997-6.55,3.492c-1.267,1.495-7.385-1.246-8.229,0c-0.849,1.254-2.534,2.749-3.595,3.74
			c-1.062,1.001-4.011,0.251-3.379,3.244c0.634,2.996,2.113,5.739,3.379,5.739s2.958-0.996,2.958-3.745c0-2.742,2.952,0,4.43-0.246
			c1.481-0.247,2.323-1.993,2.954-3.99c0.639-1.992-0.841,0.999,1.693,1.749c2.54,0.747,3.379-1.254,3.379-2.002
			c0-0.748,4.644-1.992,5.491-2.739c0.846-0.748,4.225-1.997,4.438-2.995c0.205-0.996,0-6.736,1.052-7.233
			c1.055-0.506,2.532-0.506,0.847-3.991C925.561,142.764,925.561,139.52,923.448,141.02"/>
		<path fill="#FFFFFF" d="M876.993,190.159c-3.125,0.575-5.062,8.491-2.53,8.239C876.993,198.15,879.742,189.665,876.993,190.159"/>
		<path fill="#FFFFFF" d="M1007.277,366.795c-0.85,0.494,0,3.246,0.844,4.234c0.848,1.001,1.267,4.492,1.057,5.493
			c-0.209,0.996-3.804,2.245-2.115,3.489c1.692,1.254,4.856,0,4.438,1.496c-0.42,1.497-2.112,3.499-0.213,3.993
			c1.901,0.502,2.533-1.748,3.379-3.484c0.847-1.751,1.481-3.249,2.949-4.247c1.479-0.996,0-3.244-0.837-3.244
			c-0.846,0-1.266,1.247-3.166,0c-1.898-1.248-1.481-0.746-2.744-3.242C1009.6,368.785,1009.388,365.544,1007.277,366.795"/>
		<path fill="#FFFFFF" d="M1005.582,382.764c-0.338,1.206-2.105,1.495-3.371,2.737c-1.266,1.249,0,1.748-3.593,4.244
			c-3.591,2.496-8.023,5.235-8.87,7.478c-0.837,2.25,0.847,3.497,4.227,3.746c3.377,0.25,2.53,1,4.857-1.995
			c2.32-2.993,4.43-4.741,7.177-7.231c2.747-2.498,2.747-6.241,2.747-6.241S1005.797,382.017,1005.582,382.764"/>
		<path fill="#FFFFFF" d="M935.064,384.754c-2.327,2.743,2.325,2.743,1.691,5.49c-0.632,2.744,3.163,1.743,4.222,1.249
			c1.049-0.499,3.591-6.246,3.162-7.741c-0.42-1.494-4.643,2.496-5.697,2.25C937.39,385.755,935.064,384.754,935.064,384.754"/>
		<path fill="#FFFFFF" d="M919.65,365.3c0-2.549-1.266,2.737-2.115,0.494c-0.844-2.242,0.85-5.987-1.264-4.49
			c-2.112,1.5-3.166,2.742-3.378,3.996c-0.212,1.242-4.013,1.741-3.806,0.494c0.213-1.246,1.692-4.239,0.213-5.486
			c-1.481-1.256-4.014-1.75-5.908-2.498c-1.901-0.745,0.214-3.244-4.86-1.999c-5.063,1.254-6.962,2.747-6.962,2.747
			s-4.652-1.749-6.122,0.25c-1.48,1.994-2.323,8.344-2.323,8.344s-7.184-2.354-8.457-2.104c-1.266,0.253-3.371,2.243-5.269,2.99
			c-1.908,0.748-5.071,1.494-6.338,0.253c-1.263-1.249-3.376-3.492-2.744-4.989c0.632-1.498,5.277-3.494,3.591-5.993
			c-1.693-2.488-2.744-2.995-2.959-4.485c-0.212-1.5,0.632-2.244-1.899-5.242c-2.532-2.99-1.898-6.484-0.845-6.979
			c1.059-0.506-3.514-3.496-4.351-4.745c-0.849-1.25,2.031-5.734,3.719-6.986c1.69-1.244,6.755-5.985,8.235-5.985
			c1.478,0,3.796,0.75,5.276-0.499c1.479-1.247,5.908-0.748,5.908-1.746s-1.228-9.031-0.174-10.273
			c1.059-1.252,7.148,1.541,7.782,0.538c0.629-0.991,1.681-5.23,2.947-5.98c1.275-0.75,2.329-2.491,4.233,0
			c1.898,2.496,3.799,3.494,4.638,0.998c0.847-2.493,0.213-1.748,2.112-3.991c1.898-2.245-0.214-5.99,1.693-3.747
			c1.899,2.247,3.167,3.996,3.167,3.996s-0.208-4.99,1.058-4.99c1.27,0,2.535,2.496,3.166,2.496c0.632,0,6.336-1.502,7.39,0.246
			c1.052,1.746-2.959,6.487-1.479,8.233c1.479,1.748,4.43,2.739,6.543,4.243c2.115,1.493,4.642,4.99,5.705,1.999
			c1.049-2.996,3.164-7.484,1.686-9.729c-1.471-2.245,0.428-9.487,1.06-9.981c0.634-0.497,1.685,5.734,3.798,8.484
			c2.112,2.741,4.225,4.736,5.278,7.724c1.059,2.997,1.267,8.237,3.164,9.986c1.897,1.748,9.212,1.618,8.995,3.865
			c-0.202,2.243,0.719,6.609,3.038,10.852c2.327,4.245,6.808,14.177,6.808,18.171c0,3.991-6.808,8.527-8.705,11.522
			c-1.9,2.99-2.535,6.983-3.371,8.479c-0.844,1.495-0.427,1.249-3.591,2.243c-3.174,0.998-5.491,3.991-6.338,2.995
			c-0.841-0.994-3.8-2.742-4.645-1.498c-0.847,1.249-1.902,3.989-3.381,0.999c-1.481-2.995-4.859-2.496-5.491-2.995
			c-0.632-0.495-0.632-1.997-0.632-4.493c0-2.485-2.742-2.739-2.959-3.486C920.284,366.795,919.65,366.048,919.65,365.3"/>
		<path fill="#FFFFFF" d="M1016.981,316.396c2.756,1.244,7.605-4.49,5.708-5.238
			C1020.791,310.406,1016.981,316.396,1016.981,316.396"/>
		<path fill="#FFFFFF" d="M990.175,328.869c-0.412,2.428-2.957,1.252-4.225-0.991c-1.269-2.245-3.8-3.994,0-2.995
			C989.748,325.876,990.385,327.625,990.175,328.869"/>
		<path fill="#FFFFFF" d="M812.177,247.541c-2.621,0.622,3.801,5.992,4.432,6.74c0.635,0.747,6.338,6.481,6.338,9.231
			c0,2.744,1.837,11.281,2.892,12.277c1.057,1.003,8.296,2.69,9.142,4.687c0.847,1.99,2.744,2.494,2.744-0.253
			c0-2.744,0.423-5.99,1.474-7.485c1.06-1.5,0.632-3.744-1.051-3.489c-1.689,0.251-3.167-3.245-5.913-5.488
			c-2.745-2.248-4.854-3.743-7.387-6.984c-2.532-3.243-5.706-5.239-7.394-6.987C815.763,248.04,813.23,247.295,812.177,247.541"/>
		<path fill="#FFFFFF" d="M820.407,234.32c-1.687,0.248-1.687,3.994-0.847,5.243c0.847,1.244,2.539,0.499,3.591,4.984
			c1.062,4.491,3.174,8.986,4.013,10.734c0.844,1.738,4.439,4.233,5.703,5.48c1.266,1.249,3.167-0.497,2.325-1.994
			c-0.847-1.498-2.539-3.739-2.755-5.488c-0.204-1.743-1.266-4.49-2.948-7.485c-1.693-2.995-3.164-3.743-4.226-5.732
			C824.213,238.061,820.407,234.32,820.407,234.32"/>
		<path fill="#FFFFFF" d="M838.146,281.476c-1.543,2.272,0.42,3.989,1.051,4.485c0.632,0.496,2.959,0.996,5.074,0.748
			c2.112-0.252,5.062-0.998,2.744-2.493c-2.327-1.496-5.071,0-5.921-1.992C840.256,280.225,838.995,280.225,838.146,281.476"/>
		<path fill="#FFFFFF" d="M850.392,283.467c-1.478,0.748-3.796,1.242-2.112,2.99c1.688,1.749,2.746,2.496,5.278,2.25
			c2.535-0.253,6.34,1.495,6.545,0c0.215-1.494-2.32-3.744-3.371-3.744C855.671,284.963,850.392,283.467,850.392,283.467"/>
		<path fill="#FFFFFF" d="M871.085,291.703c-0.475,2.228,3.164,3.243,3.379,0.748C874.669,289.955,871.512,289.706,871.085,291.703"
			/>
		<path fill="#FFFFFF" d="M882.279,293.448c0.328,2.728,4.64-1.497,4.64-1.497s3.383-0.496,3.383-2.245
			c0-1.748-3.383-3.995-4.653-1.999C884.384,289.706,882.067,291.703,882.279,293.448"/>
		<path fill="#FFFFFF" d="M872.982,265.509c-1.266,0.494-1.051,1.748-1.471,4.237c-0.427,2.496-2.327,4.242-0.642,5.491
			c1.692,1.247,4.859-4.242,5.706-2.498c0.847,1.748-0.212,2.498,1.266,4.741c1.479,2.246,4.225,1.995,4.225,1.995
			s-0.212-5.986-2.533-7.486c-2.325-1.498-3.804-3.236-1.062-2.74c2.752,0.497,4.23-0.75,3.596-2.243
			c-0.632-1.497-4.644-0.75-5.918-0.499C874.886,266.751,872.982,265.509,872.982,265.509"/>
		<path fill="#FFFFFF" d="M874.249,260.518c-1.471,1.74-0.42,3.489,1.899,3.243c2.322-0.249,7.187-1.001,8.235-1.001
			c1.064,0,2.535-3.244,1.693-3.244c-0.847,0-6.757,1.248-7.392,1.5C878.054,261.264,874.249,260.518,874.249,260.518"/>
		<path fill="#FFFFFF" d="M895.786,257.021c-1.937-0.978-5.484,8.235-2.949,8.983C895.367,266.75,897.267,257.768,895.786,257.021"
			/>
		<path fill="#FFFFFF" d="M866.857,243.803c-0.082-1.763-3.379,0.494-3.593,2.243c-0.203,1.748,2.329,3.243-1.683,3.243
			c-4.009,0-4.219,3.745-5.065,4.498c-0.846,0.747-1.695,0.988-3.383,1.494c-1.688,0.494-2.107,2.486-2.532,3.738
			c-0.422,1.246-3.371-2.242-4.218-1.252c-0.85,1.001-0.217,5.744,1.264,9.735c1.481,3.989,5.279,6.485,6.33,6.485
			c1.062,0,3.174,0,4.652,0.498c1.473,0.494,6.33,0.994,6.118-1.248c-0.209-2.243-0.635-5.735,1.48-7.982
			c2.112-2.243,4.222-3.492,3.171-6.738c-1.059-3.236-3.171-5.238-1.692-6.732c1.478-1.497,3.163-1.996,3.163-3.246
			C870.87,247.295,867.286,252.038,866.857,243.803"/>
		<path fill="#FFFFFF" d="M877.208,208.626c-1.479,0,0.215,2.747-1.898,4.493c-2.112,1.741-4.438,2.488-3.173,5.484
			c1.266,2.997,5.705,5.242,4.647,6.49c-1.055,1.245-4.222,3.738-4.647,5.983c-0.42,2.243,5.071-3.497,6.549-5.739
			c1.479-2.242,4.436-0.994,5.067-2.242l0.632-1.25c0,0-2.318-0.498-4.22-1.246c-1.903-0.75-4.224,1.996-3.172-1.996
			c1.062-3.989,4.229-3.242,3.594-6.234C879.957,209.376,877.842,208.626,877.208,208.626"/>
		<path fill="#FFFFFF" d="M879.108,230.33c-0.72,0.309-2.532,4.741-0.207,4.741c2.321,0,6.329,0.75,5.482-0.503
			C883.545,233.32,881.435,229.332,879.108,230.33"/>
		<path fill="#FFFFFF" d="M886.077,226.59c-0.846-0.07-3.588,5.235,0.205,4.984C890.092,231.33,889.031,226.836,886.077,226.59"/>
		<path fill="#FFFFFF" d="M886.712,235.82c-2.96,4.493-2.744,3.492-4.857,2.494c-2.112-0.996-5.491,2.242-4.861,3.496
			c0.634,1.242,5.286-0.253,6.343,1.992c1.049,2.243,1.049,2.494,3.16,1.992c2.113-0.497,4.226-3.984,3.597-5.732
			C889.458,238.314,886.712,235.82,886.712,235.82"/>
		<path fill="#FFFFFF" d="M901.072,265.256c-1.589,1.874-2.327,2.002,1.266,2.749c3.583,0.748,4.647,0.748,3.166,2.739
			c-1.479,1.994-2.534,4.492-1.266,4.736c1.266,0.255,5.062-0.994,5.484,0c0.425,1.003-0.843,1.249,3.383,1.999
			c4.22,0.755,5.064,2.501,5.911,3.492c0.842,1.001,3.381,4.244,1.689,4.244c-1.689,0-3.588,2.491-2.322,2.742
			c1.267,0.248,5.064-0.745,5.279,0c0.215,0.75,2.327,5.491,4.428,5.243c2.114-0.257,3.38-4.746,4.435-5.988
			c1.059-1.252,5.284-1.997,5.701,0.246c0.429,2.247,1.692,4.492,4.228,5.99c2.532,1.497,5.49,2.994,5.705,1.74
			c0.202-1.244-1.276-5.982-2.959-6.734c-1.693-0.748-4.644-4.987-4.644-6.736c0-1.738-2.533-2.242-3.802-3.484
			c-1.271-1.25-2.325-4.746-5.496-5.496c-3.168-0.75-4.005-1.994-7.381-3.985c-3.389-2.002-10.984-2.002-11.196-0.748
			c-0.209,1.244,0,0-2.534-0.998c-2.53-1.003-4.429,0-5.062-1.751C904.45,263.513,902.97,263.013,901.072,265.256"/>
	</g>
</g>
<g>
	<path fill="#B3B3B3" d="M1024.189,317.812c0-0.266,0.037-0.555,0.111-0.867s0.178-0.627,0.311-0.943s0.293-0.625,0.48-0.926
		s0.398-0.566,0.633-0.797s0.488-0.414,0.762-0.551s0.562-0.205,0.867-0.205c0.25,0,0.484,0.033,0.703,0.1s0.406,0.166,0.562,0.299
		s0.279,0.299,0.369,0.498s0.135,0.436,0.135,0.709c-0.172,0-0.311-0.045-0.416-0.135s-0.203-0.189-0.293-0.299
		s-0.188-0.207-0.293-0.293s-0.24-0.129-0.404-0.129c-0.242,0-0.475,0.062-0.697,0.188s-0.43,0.293-0.621,0.504
		s-0.359,0.449-0.504,0.715s-0.27,0.533-0.375,0.803s-0.188,0.533-0.246,0.791s-0.088,0.48-0.088,0.668
		c0,0.406,0.061,0.787,0.182,1.143s0.295,0.664,0.521,0.926s0.508,0.467,0.844,0.615s0.719,0.223,1.148,0.223
		c0.273,0,0.533-0.041,0.779-0.123s0.484-0.172,0.715-0.27s0.459-0.189,0.686-0.275s0.453-0.129,0.68-0.129
		c0.031,0,0.076,0.002,0.135,0.006s0.113,0.014,0.164,0.029s0.096,0.041,0.135,0.076s0.059,0.088,0.059,0.158
		c0,0.281-0.107,0.52-0.322,0.715s-0.471,0.354-0.768,0.475s-0.605,0.209-0.926,0.264s-0.582,0.082-0.785,0.082
		c-0.594,0-1.148-0.096-1.664-0.287s-0.965-0.463-1.348-0.814s-0.684-0.775-0.902-1.271S1024.189,318.43,1024.189,317.812z"/>
	<path fill="#B3B3B3" d="M1032.324,316.91c0-0.07,0.004-0.143,0.012-0.217s0.023-0.141,0.047-0.199s0.061-0.107,0.111-0.146
		s0.123-0.059,0.217-0.059c0.078,0,0.166,0.061,0.264,0.182s0.197,0.273,0.299,0.457s0.201,0.385,0.299,0.604
		s0.184,0.42,0.258,0.604s0.135,0.342,0.182,0.475s0.074,0.203,0.082,0.211c0.102-0.273,0.215-0.57,0.34-0.891
		s0.279-0.619,0.463-0.896s0.402-0.51,0.656-0.697s0.564-0.281,0.932-0.281c0.188,0,0.365,0.029,0.533,0.088
		s0.316,0.145,0.445,0.258s0.232,0.248,0.311,0.404s0.117,0.336,0.117,0.539c0,0.172-0.068,0.293-0.205,0.363
		s-0.291,0.105-0.463,0.105h-0.117l-0.504-0.504c-0.016,0-0.027-0.004-0.035-0.012c-0.016,0-0.029-0.002-0.041-0.006
		s-0.025-0.006-0.041-0.006c-0.273,0-0.486,0.076-0.639,0.229s-0.268,0.34-0.346,0.562s-0.127,0.457-0.146,0.703
		s-0.029,0.471-0.029,0.674c0,0.156,0.016,0.314,0.047,0.475s0.066,0.316,0.105,0.469s0.074,0.309,0.105,0.469
		s0.047,0.326,0.047,0.498c0,0.328-0.176,0.492-0.527,0.492c-0.195,0-0.398-0.104-0.609-0.311s-0.42-0.471-0.627-0.791
		s-0.404-0.674-0.592-1.061s-0.352-0.764-0.492-1.131s-0.252-0.699-0.334-0.996S1032.324,317.051,1032.324,316.91z"/>
	<path fill="#B3B3B3" d="M1043.94,320.32c-0.297,0.203-0.553,0.385-0.768,0.545s-0.424,0.295-0.627,0.404s-0.42,0.191-0.65,0.246
		s-0.514,0.082-0.85,0.082c-0.727,0-1.266-0.193-1.617-0.58s-0.527-0.963-0.527-1.729c0-0.297,0.039-0.605,0.117-0.926
		s0.193-0.639,0.346-0.955s0.334-0.617,0.545-0.902s0.449-0.537,0.715-0.756s0.549-0.393,0.85-0.521s0.619-0.193,0.955-0.193
		c0.562,0.055,1.004,0.193,1.324,0.416s0.562,0.508,0.727,0.855s0.277,0.734,0.34,1.16s0.111,0.865,0.146,1.318
		s0.08,0.906,0.135,1.359s0.168,0.871,0.34,1.254c-0.102,0.258-0.197,0.439-0.287,0.545s-0.189,0.123-0.299,0.053
		s-0.236-0.242-0.381-0.516S1044.151,320.82,1043.94,320.32z M1039.897,319.312c0,0.445,0.084,0.771,0.252,0.979
		s0.467,0.311,0.896,0.311c0.32,0,0.627-0.057,0.92-0.17s0.549-0.27,0.768-0.469s0.395-0.439,0.527-0.721s0.199-0.594,0.199-0.938
		c0-0.141,0.004-0.338,0.012-0.592s-0.008-0.506-0.047-0.756s-0.113-0.467-0.223-0.65s-0.273-0.275-0.492-0.275
		c-0.406,0-0.781,0.104-1.125,0.311s-0.641,0.471-0.891,0.791s-0.445,0.674-0.586,1.061S1039.897,318.953,1039.897,319.312z"/>
	<path fill="#B3B3B3" d="M1051.536,322.922c-0.164-0.305-0.346-0.686-0.545-1.143s-0.404-0.934-0.615-1.43s-0.432-0.982-0.662-1.459
		s-0.463-0.891-0.697-1.242c-0.094-0.07-0.223-0.113-0.387-0.129s-0.336-0.021-0.516-0.018s-0.357,0-0.533-0.012
		s-0.328-0.053-0.457-0.123s-0.225-0.18-0.287-0.328s-0.074-0.363-0.035-0.645h1.969c0.039-0.438,0.105-0.871,0.199-1.301
		s0.221-0.84,0.381-1.23s0.354-0.754,0.58-1.09s0.5-0.625,0.82-0.867s0.689-0.434,1.107-0.574s0.893-0.211,1.424-0.211
		c0.188,0,0.375,0.045,0.562,0.135s0.355,0.209,0.504,0.357s0.268,0.316,0.357,0.504s0.135,0.375,0.135,0.562
		c-0.148,0-0.281-0.029-0.398-0.088s-0.23-0.125-0.34-0.199s-0.227-0.145-0.352-0.211s-0.266-0.1-0.422-0.1
		c-0.469,0-0.904,0.094-1.307,0.281s-0.754,0.438-1.055,0.75s-0.537,0.676-0.709,1.09s-0.258,0.852-0.258,1.312
		c0,0.031,0.002,0.088,0.006,0.17s0.006,0.17,0.006,0.264s0.002,0.184,0.006,0.27s0.006,0.145,0.006,0.176
		c0.289,0.094,0.613,0.164,0.973,0.211s0.721,0.076,1.084,0.088s0.715,0.01,1.055-0.006s0.643-0.035,0.908-0.059
		c0.023,0.023,0.066,0.066,0.129,0.129s0.098,0.109,0.105,0.141c0,0.023,0.004,0.039,0.012,0.047l0.023,0.07
		c0,0.164-0.086,0.293-0.258,0.387s-0.391,0.162-0.656,0.205s-0.561,0.072-0.885,0.088s-0.637,0.029-0.938,0.041
		s-0.57,0.027-0.809,0.047s-0.404,0.057-0.498,0.111c0.102,0.469,0.283,0.922,0.545,1.359s0.529,0.875,0.803,1.312
		s0.516,0.879,0.727,1.324s0.316,0.902,0.316,1.371c-0.031,0-0.104,0.002-0.217,0.006s-0.232-0.002-0.357-0.018
		s-0.244-0.049-0.357-0.1S1051.552,323.023,1051.536,322.922z"/>
	<path fill="#B3B3B3" d="M1055.37,315.926c0-0.023,0.004-0.043,0.012-0.059c0-0.016,0.004-0.035,0.012-0.059
		c0.031-0.039,0.078-0.09,0.141-0.152s0.102-0.094,0.117-0.094h2.355c0-0.086-0.012-0.223-0.035-0.41s-0.045-0.395-0.064-0.621
		s-0.025-0.463-0.018-0.709s0.041-0.469,0.1-0.668s0.152-0.363,0.281-0.492s0.311-0.193,0.545-0.193
		c0,0.789,0.055,1.422,0.164,1.898s0.256,0.844,0.439,1.102s0.393,0.426,0.627,0.504s0.475,0.111,0.721,0.1s0.486-0.049,0.721-0.111
		s0.443-0.105,0.627-0.129s0.33-0.006,0.439,0.053s0.164,0.197,0.164,0.416c0,0.164-0.037,0.281-0.111,0.352
		s-0.217,0.125-0.428,0.164c-0.062,0.008-0.166,0.021-0.311,0.041s-0.307,0.037-0.486,0.053s-0.371,0.033-0.574,0.053
		s-0.395,0.037-0.574,0.053s-0.344,0.025-0.492,0.029s-0.258,0.006-0.328,0.006c0,0.039-0.004,0.105-0.012,0.199
		s-0.012,0.156-0.012,0.188c0,0.344,0.055,0.678,0.164,1.002s0.229,0.646,0.357,0.967s0.248,0.641,0.357,0.961
		s0.164,0.652,0.164,0.996c0,0.062-0.006,0.127-0.018,0.193s-0.035,0.125-0.07,0.176s-0.086,0.09-0.152,0.117
		s-0.158,0.021-0.275-0.018c-0.297-0.078-0.518-0.246-0.662-0.504s-0.252-0.564-0.322-0.92s-0.117-0.732-0.141-1.131
		s-0.061-0.771-0.111-1.119s-0.131-0.645-0.24-0.891s-0.285-0.396-0.527-0.451l-2.262-0.516c-0.031,0-0.078-0.033-0.141-0.1
		s-0.102-0.115-0.117-0.146c-0.008-0.016-0.012-0.035-0.012-0.059C1055.374,315.98,1055.37,315.957,1055.37,315.926z"/>
	<path fill="#B3B3B3" d="M1063.763,318.574c0-0.422,0.051-0.844,0.152-1.266s0.264-0.801,0.486-1.137s0.512-0.609,0.867-0.82
		s0.787-0.316,1.295-0.316c0.289,0,0.543,0.053,0.762,0.158s0.402,0.244,0.551,0.416s0.26,0.373,0.334,0.604
		s0.111,0.471,0.111,0.721c0,0.398-0.092,0.785-0.275,1.16s-0.43,0.705-0.738,0.99s-0.662,0.5-1.061,0.645s-0.805,0.178-1.219,0.1
		c0.008,0.227,0.084,0.408,0.229,0.545s0.318,0.24,0.521,0.311s0.414,0.115,0.633,0.135s0.414,0.029,0.586,0.029
		c0.18,0,0.348-0.016,0.504-0.047s0.312-0.066,0.469-0.105s0.314-0.074,0.475-0.105s0.33-0.047,0.51-0.047
		c0.07,0,0.141,0.004,0.211,0.012s0.137,0.025,0.199,0.053s0.113,0.07,0.152,0.129s0.059,0.131,0.059,0.217
		c0,0.148-0.055,0.271-0.164,0.369s-0.248,0.182-0.416,0.252s-0.354,0.123-0.557,0.158s-0.4,0.062-0.592,0.082
		s-0.367,0.031-0.527,0.035s-0.279,0.006-0.357,0.006c-0.5,0-0.949-0.08-1.348-0.24s-0.734-0.383-1.008-0.668
		s-0.482-0.629-0.627-1.031S1063.763,319.066,1063.763,318.574z M1065.005,317.812c0,0.273,0.037,0.473,0.111,0.598
		s0.256,0.188,0.545,0.188c0.203,0,0.402-0.037,0.598-0.111s0.373-0.178,0.533-0.311s0.287-0.289,0.381-0.469
		s0.141-0.375,0.141-0.586c0-0.117-0.01-0.238-0.029-0.363s-0.061-0.24-0.123-0.346s-0.143-0.191-0.24-0.258s-0.225-0.1-0.381-0.1
		c-0.234,0-0.447,0.053-0.639,0.158s-0.354,0.242-0.486,0.41s-0.234,0.355-0.305,0.562S1065.005,317.602,1065.005,317.812z"/>
	<path fill="#B3B3B3" d="M1070.645,320.449c0-0.453,0.113-0.855,0.34-1.207s0.508-0.658,0.844-0.92s0.699-0.484,1.09-0.668
		s0.754-0.336,1.09-0.457s0.617-0.219,0.844-0.293s0.34-0.135,0.34-0.182c0-0.273-0.014-0.541-0.041-0.803s-0.057-0.525-0.088-0.791
		s-0.061-0.529-0.088-0.791s-0.041-0.521-0.041-0.779v-0.762c0.32-0.117,0.549-0.105,0.686,0.035s0.158,0.383,0.064,0.727
		c0.031,0.172,0.074,0.441,0.129,0.809s0.115,0.781,0.182,1.242s0.137,0.945,0.211,1.453s0.145,0.994,0.211,1.459
		s0.123,0.879,0.17,1.242s0.082,0.635,0.105,0.814c0.008,0.039,0.016,0.115,0.023,0.229s0.014,0.234,0.018,0.363
		s0.008,0.248,0.012,0.357s0.006,0.188,0.006,0.234c-0.297,0-0.498-0.012-0.604-0.035s-0.172-0.07-0.199-0.141
		s-0.041-0.172-0.041-0.305s-0.039-0.316-0.117-0.551c-0.289,0.227-0.562,0.414-0.82,0.562s-0.516,0.268-0.773,0.357
		s-0.518,0.152-0.779,0.188s-0.541,0.053-0.838,0.053c-0.25,0-0.49-0.021-0.721-0.064s-0.436-0.119-0.615-0.229
		s-0.324-0.258-0.434-0.445S1070.645,320.73,1070.645,320.449z M1071.664,320.203c0,0.125,0.027,0.227,0.082,0.305
		s0.125,0.145,0.211,0.199s0.178,0.092,0.275,0.111s0.193,0.029,0.287,0.029c0.273,0,0.568-0.053,0.885-0.158
		s0.609-0.254,0.879-0.445s0.492-0.42,0.668-0.686s0.264-0.555,0.264-0.867c0-0.242-0.043-0.41-0.129-0.504s-0.25-0.141-0.492-0.141
		c-0.25,0-0.541,0.059-0.873,0.176s-0.652,0.273-0.961,0.469s-0.568,0.424-0.779,0.686S1071.664,319.914,1071.664,320.203z"/>
	<path fill="#B3B3B3" d="M1084.688,313.043c0.148,0.062,0.273,0.164,0.375,0.305s0.146,0.268,0.135,0.381s-0.1,0.191-0.264,0.234
		s-0.438-0.002-0.82-0.135c0-0.211,0.041-0.395,0.123-0.551S1084.469,313.043,1084.688,313.043z M1084.523,317.438
		c0-0.047,0.002-0.123,0.006-0.229s0.008-0.217,0.012-0.334s0.008-0.23,0.012-0.34s0.006-0.188,0.006-0.234
		c0.086-0.125,0.197-0.227,0.334-0.305s0.275-0.141,0.416-0.188c0.023,0.422,0.09,0.871,0.199,1.348s0.227,0.955,0.352,1.436
		s0.236,0.955,0.334,1.424s0.146,0.906,0.146,1.312c0,0.352-0.18,0.527-0.539,0.527c-0.219,0-0.402-0.09-0.551-0.27
		s-0.268-0.408-0.357-0.686s-0.162-0.586-0.217-0.926s-0.092-0.674-0.111-1.002s-0.031-0.629-0.035-0.902
		S1084.523,317.586,1084.523,317.438z"/>
	<path fill="#B3B3B3" d="M1087.385,317.883c0-0.203,0.051-0.35,0.152-0.439s0.266-0.135,0.492-0.135h0.117
		c0.023,0.125,0.051,0.27,0.082,0.434s0.078,0.332,0.141,0.504s0.137,0.33,0.223,0.475s0.191,0.26,0.316,0.346
		c0.008-0.273,0.076-0.537,0.205-0.791s0.289-0.48,0.48-0.68s0.402-0.367,0.633-0.504s0.459-0.229,0.686-0.275h0.258
		c0.375,0,0.695,0.084,0.961,0.252s0.486,0.387,0.662,0.656s0.311,0.576,0.404,0.92s0.166,0.693,0.217,1.049
		s0.082,0.699,0.094,1.031s0.018,0.615,0.018,0.85h-0.855c-0.047-0.469-0.105-0.918-0.176-1.348
		c-0.023-0.172-0.055-0.354-0.094-0.545s-0.082-0.371-0.129-0.539s-0.098-0.324-0.152-0.469s-0.117-0.268-0.188-0.369
		c-0.031-0.031-0.072-0.074-0.123-0.129s-0.104-0.109-0.158-0.164s-0.105-0.102-0.152-0.141s-0.074-0.059-0.082-0.059
		c-0.234-0.062-0.438-0.018-0.609,0.135s-0.324,0.357-0.457,0.615s-0.24,0.551-0.322,0.879s-0.15,0.643-0.205,0.943
		s-0.094,0.562-0.117,0.785s-0.039,0.357-0.047,0.404c-0.195,0.141-0.379,0.182-0.551,0.123s-0.334-0.182-0.486-0.369
		s-0.289-0.422-0.41-0.703s-0.232-0.58-0.334-0.896s-0.193-0.635-0.275-0.955S1087.447,318.156,1087.385,317.883z"/>
	<path fill="#B3B3B3" d="M1100.912,313.09c0.094-0.477,0.266-0.854,0.516-1.131s0.537-0.467,0.861-0.568s0.672-0.127,1.043-0.076
		s0.723,0.166,1.055,0.346s0.623,0.412,0.873,0.697s0.426,0.609,0.527,0.973s0.102,0.756,0,1.178s-0.332,0.855-0.691,1.301
		c0.281,0.102,0.543,0.203,0.785,0.305s0.447,0.227,0.615,0.375s0.299,0.328,0.393,0.539s0.141,0.473,0.141,0.785
		c0,0.258-0.047,0.531-0.141,0.82s-0.225,0.574-0.393,0.855s-0.363,0.549-0.586,0.803s-0.463,0.479-0.721,0.674
		s-0.521,0.35-0.791,0.463s-0.533,0.17-0.791,0.17c-0.172,0-0.34-0.109-0.504-0.328s-0.324-0.508-0.48-0.867
		s-0.309-0.773-0.457-1.242s-0.285-0.955-0.41-1.459s-0.238-1.004-0.34-1.5s-0.189-0.955-0.264-1.377s-0.133-0.787-0.176-1.096
		S1100.912,313.207,1100.912,313.09z M1102.248,314.18c0,0.141-0.004,0.314-0.012,0.521s-0.008,0.42,0,0.639s0.031,0.438,0.07,0.656
		s0.109,0.406,0.211,0.562c0.383-0.07,0.717-0.203,1.002-0.398s0.516-0.424,0.691-0.686s0.303-0.541,0.381-0.838
		s0.107-0.586,0.088-0.867s-0.086-0.539-0.199-0.773s-0.271-0.416-0.475-0.545s-0.449-0.193-0.738-0.193s-0.621,0.094-0.996,0.281
		c0,0.062-0.002,0.172-0.006,0.328s-0.008,0.32-0.012,0.492s-0.006,0.336-0.006,0.492S1102.248,314.117,1102.248,314.18z
		 M1102.998,318.164c0,0.133,0.031,0.309,0.094,0.527s0.143,0.438,0.24,0.656s0.205,0.42,0.322,0.604s0.242,0.307,0.375,0.369
		c0.109,0.062,0.238,0.057,0.387-0.018s0.299-0.191,0.451-0.352s0.299-0.344,0.439-0.551s0.268-0.412,0.381-0.615
		s0.203-0.393,0.27-0.568s0.1-0.311,0.1-0.404c0-0.203-0.027-0.369-0.082-0.498s-0.135-0.232-0.24-0.311s-0.23-0.133-0.375-0.164
		s-0.303-0.047-0.475-0.047c-0.195,0-0.402,0.031-0.621,0.094s-0.42,0.152-0.604,0.27s-0.34,0.262-0.469,0.434
		S1102.998,317.953,1102.998,318.164z"/>
	<path fill="#B3B3B3" d="M1108.38,316.91c0-0.07,0.004-0.143,0.012-0.217s0.023-0.141,0.047-0.199s0.061-0.107,0.111-0.146
		s0.123-0.059,0.217-0.059c0.078,0,0.166,0.061,0.264,0.182s0.197,0.273,0.299,0.457s0.201,0.385,0.299,0.604
		s0.184,0.42,0.258,0.604s0.135,0.342,0.182,0.475s0.074,0.203,0.082,0.211c0.102-0.273,0.215-0.57,0.34-0.891
		s0.279-0.619,0.463-0.896s0.402-0.51,0.656-0.697s0.564-0.281,0.932-0.281c0.188,0,0.365,0.029,0.533,0.088
		s0.316,0.145,0.445,0.258s0.232,0.248,0.311,0.404s0.117,0.336,0.117,0.539c0,0.172-0.068,0.293-0.205,0.363
		s-0.291,0.105-0.463,0.105h-0.117l-0.504-0.504c-0.016,0-0.027-0.004-0.035-0.012c-0.016,0-0.029-0.002-0.041-0.006
		s-0.025-0.006-0.041-0.006c-0.273,0-0.486,0.076-0.639,0.229s-0.268,0.34-0.346,0.562s-0.127,0.457-0.146,0.703
		s-0.029,0.471-0.029,0.674c0,0.156,0.016,0.314,0.047,0.475s0.066,0.316,0.105,0.469s0.074,0.309,0.105,0.469
		s0.047,0.326,0.047,0.498c0,0.328-0.176,0.492-0.527,0.492c-0.195,0-0.398-0.104-0.609-0.311s-0.42-0.471-0.627-0.791
		s-0.404-0.674-0.592-1.061s-0.352-0.764-0.492-1.131s-0.252-0.699-0.334-0.996S1108.38,317.051,1108.38,316.91z"/>
	<path fill="#B3B3B3" d="M1115.612,313.043c0.148,0.062,0.273,0.164,0.375,0.305s0.146,0.268,0.135,0.381s-0.1,0.191-0.264,0.234
		s-0.438-0.002-0.82-0.135c0-0.211,0.041-0.395,0.123-0.551S1115.394,313.043,1115.612,313.043z M1115.448,317.438
		c0-0.047,0.002-0.123,0.006-0.229s0.008-0.217,0.012-0.334s0.008-0.23,0.012-0.34s0.006-0.188,0.006-0.234
		c0.086-0.125,0.197-0.227,0.334-0.305s0.275-0.141,0.416-0.188c0.023,0.422,0.09,0.871,0.199,1.348s0.227,0.955,0.352,1.436
		s0.236,0.955,0.334,1.424s0.146,0.906,0.146,1.312c0,0.352-0.18,0.527-0.539,0.527c-0.219,0-0.402-0.09-0.551-0.27
		s-0.268-0.408-0.357-0.686s-0.162-0.586-0.217-0.926s-0.092-0.674-0.111-1.002s-0.031-0.629-0.035-0.902
		S1115.448,317.586,1115.448,317.438z"/>
	<path fill="#B3B3B3" d="M1120.56,321.305c0.125-0.086,0.275-0.197,0.451-0.334s0.354-0.283,0.533-0.439s0.348-0.32,0.504-0.492
		s0.279-0.338,0.369-0.498s0.135-0.311,0.135-0.451s-0.07-0.258-0.211-0.352c-0.25,0-0.523,0.01-0.82,0.029
		s-0.594,0.027-0.891,0.023s-0.584-0.029-0.861-0.076s-0.525-0.133-0.744-0.258s-0.393-0.303-0.521-0.533s-0.193-0.525-0.193-0.885
		c0-0.422,0.08-0.803,0.24-1.143s0.373-0.641,0.639-0.902s0.564-0.492,0.896-0.691s0.666-0.369,1.002-0.51
		c0.203,0.055,0.391,0.152,0.562,0.293s0.32,0.297,0.445,0.469c-0.055,0.172-0.162,0.305-0.322,0.398s-0.344,0.176-0.551,0.246
		s-0.424,0.145-0.65,0.223s-0.432,0.182-0.615,0.311s-0.338,0.297-0.463,0.504s-0.188,0.479-0.188,0.814
		c0,0.25,0.062,0.434,0.188,0.551s0.289,0.197,0.492,0.24s0.434,0.059,0.691,0.047s0.521-0.029,0.791-0.053s0.533-0.037,0.791-0.041
		s0.488,0.027,0.691,0.094s0.365,0.174,0.486,0.322s0.182,0.367,0.182,0.656c0,0.125-0.041,0.285-0.123,0.48
		s-0.191,0.404-0.328,0.627s-0.297,0.443-0.48,0.662s-0.375,0.416-0.574,0.592s-0.398,0.32-0.598,0.434s-0.385,0.17-0.557,0.17
		c-0.164,0-0.271-0.059-0.322-0.176S1120.56,321.422,1120.56,321.305z"/>
	<path fill="#B3B3B3" d="M1126.444,321.328c-0.242-0.703-0.471-1.361-0.686-1.975s-0.402-1.215-0.562-1.805
		s-0.287-1.189-0.381-1.799s-0.141-1.262-0.141-1.957c0-0.055,0.002-0.154,0.006-0.299s0.006-0.295,0.006-0.451
		s0.002-0.307,0.006-0.451s0.006-0.244,0.006-0.299c0.07-0.156,0.193-0.301,0.369-0.434s0.354-0.199,0.533-0.199
		c0,0.578,0.008,1.193,0.023,1.846s0.064,1.303,0.146,1.951s0.215,1.283,0.398,1.904s0.443,1.189,0.779,1.705
		c0.008-0.188,0.016-0.395,0.023-0.621s0.029-0.453,0.064-0.68s0.092-0.445,0.17-0.656s0.193-0.398,0.346-0.562
		s0.352-0.293,0.598-0.387s0.557-0.137,0.932-0.129c0.336,0,0.639,0.062,0.908,0.188s0.496,0.295,0.68,0.51s0.324,0.465,0.422,0.75
		s0.146,0.588,0.146,0.908c0,0.43-0.105,0.852-0.316,1.266s-0.49,0.785-0.838,1.113s-0.736,0.592-1.166,0.791
		s-0.867,0.299-1.312,0.299c-0.227,0-0.445-0.041-0.656-0.123S1126.569,321.516,1126.444,321.328z M1129.222,317.051
		c-0.156,0.086-0.32,0.188-0.492,0.305s-0.33,0.299-0.475,0.545s-0.268,0.58-0.369,1.002s-0.164,0.98-0.188,1.676
		c0.016,0,0.057,0.004,0.123,0.012s0.111,0.012,0.135,0.012c0.211,0,0.451-0.066,0.721-0.199s0.531-0.297,0.785-0.492
		s0.475-0.412,0.662-0.65s0.301-0.467,0.34-0.686c0.023-0.133-0.004-0.285-0.082-0.457s-0.182-0.338-0.311-0.498
		s-0.27-0.295-0.422-0.404S1129.354,317.051,1129.222,317.051z"/>
	<path fill="#B3B3B3" d="M1137.579,320.32c-0.297,0.203-0.553,0.385-0.768,0.545s-0.424,0.295-0.627,0.404s-0.42,0.191-0.65,0.246
		s-0.514,0.082-0.85,0.082c-0.727,0-1.266-0.193-1.617-0.58s-0.527-0.963-0.527-1.729c0-0.297,0.039-0.605,0.117-0.926
		s0.193-0.639,0.346-0.955s0.334-0.617,0.545-0.902s0.449-0.537,0.715-0.756s0.549-0.393,0.85-0.521s0.619-0.193,0.955-0.193
		c0.562,0.055,1.004,0.193,1.324,0.416s0.562,0.508,0.727,0.855s0.277,0.734,0.34,1.16s0.111,0.865,0.146,1.318
		s0.08,0.906,0.135,1.359s0.168,0.871,0.34,1.254c-0.102,0.258-0.197,0.439-0.287,0.545s-0.189,0.123-0.299,0.053
		s-0.236-0.242-0.381-0.516S1137.79,320.82,1137.579,320.32z M1133.536,319.312c0,0.445,0.084,0.771,0.252,0.979
		s0.467,0.311,0.896,0.311c0.32,0,0.627-0.057,0.92-0.17s0.549-0.27,0.768-0.469s0.395-0.439,0.527-0.721s0.199-0.594,0.199-0.938
		c0-0.141,0.004-0.338,0.012-0.592s-0.008-0.506-0.047-0.756s-0.113-0.467-0.223-0.65s-0.273-0.275-0.492-0.275
		c-0.406,0-0.781,0.104-1.125,0.311s-0.641,0.471-0.891,0.791s-0.445,0.674-0.586,1.061S1133.536,318.953,1133.536,319.312z"/>
	<path fill="#B3B3B3" d="M1140.405,317.883c0-0.203,0.051-0.35,0.152-0.439s0.266-0.135,0.492-0.135h0.117
		c0.023,0.125,0.051,0.27,0.082,0.434s0.078,0.332,0.141,0.504s0.137,0.33,0.223,0.475s0.191,0.26,0.316,0.346
		c0.008-0.273,0.076-0.537,0.205-0.791s0.289-0.48,0.48-0.68s0.402-0.367,0.633-0.504s0.459-0.229,0.686-0.275h0.258
		c0.375,0,0.695,0.084,0.961,0.252s0.486,0.387,0.662,0.656s0.311,0.576,0.404,0.92s0.166,0.693,0.217,1.049
		s0.082,0.699,0.094,1.031s0.018,0.615,0.018,0.85h-0.855c-0.047-0.469-0.105-0.918-0.176-1.348
		c-0.023-0.172-0.055-0.354-0.094-0.545s-0.082-0.371-0.129-0.539s-0.098-0.324-0.152-0.469s-0.117-0.268-0.188-0.369
		c-0.031-0.031-0.072-0.074-0.123-0.129s-0.104-0.109-0.158-0.164s-0.105-0.102-0.152-0.141s-0.074-0.059-0.082-0.059
		c-0.234-0.062-0.438-0.018-0.609,0.135s-0.324,0.357-0.457,0.615s-0.24,0.551-0.322,0.879s-0.15,0.643-0.205,0.943
		s-0.094,0.562-0.117,0.785s-0.039,0.357-0.047,0.404c-0.195,0.141-0.379,0.182-0.551,0.123s-0.334-0.182-0.486-0.369
		s-0.289-0.422-0.41-0.703s-0.232-0.58-0.334-0.896s-0.193-0.635-0.275-0.955S1140.468,318.156,1140.405,317.883z"/>
	<path fill="#B3B3B3" d="M1147.778,318.574c0-0.422,0.051-0.844,0.152-1.266s0.264-0.801,0.486-1.137s0.512-0.609,0.867-0.82
		s0.787-0.316,1.295-0.316c0.289,0,0.543,0.053,0.762,0.158s0.402,0.244,0.551,0.416s0.26,0.373,0.334,0.604
		s0.111,0.471,0.111,0.721c0,0.398-0.092,0.785-0.275,1.16s-0.43,0.705-0.738,0.99s-0.662,0.5-1.061,0.645s-0.805,0.178-1.219,0.1
		c0.008,0.227,0.084,0.408,0.229,0.545s0.318,0.24,0.521,0.311s0.414,0.115,0.633,0.135s0.414,0.029,0.586,0.029
		c0.18,0,0.348-0.016,0.504-0.047s0.312-0.066,0.469-0.105s0.314-0.074,0.475-0.105s0.33-0.047,0.51-0.047
		c0.07,0,0.141,0.004,0.211,0.012s0.137,0.025,0.199,0.053s0.113,0.07,0.152,0.129s0.059,0.131,0.059,0.217
		c0,0.148-0.055,0.271-0.164,0.369s-0.248,0.182-0.416,0.252s-0.354,0.123-0.557,0.158s-0.4,0.062-0.592,0.082
		s-0.367,0.031-0.527,0.035s-0.279,0.006-0.357,0.006c-0.5,0-0.949-0.08-1.348-0.24s-0.734-0.383-1.008-0.668
		s-0.482-0.629-0.627-1.031S1147.778,319.066,1147.778,318.574z M1149.021,317.812c0,0.273,0.037,0.473,0.111,0.598
		s0.256,0.188,0.545,0.188c0.203,0,0.402-0.037,0.598-0.111s0.373-0.178,0.533-0.311s0.287-0.289,0.381-0.469
		s0.141-0.375,0.141-0.586c0-0.117-0.01-0.238-0.029-0.363s-0.061-0.24-0.123-0.346s-0.143-0.191-0.24-0.258s-0.225-0.1-0.381-0.1
		c-0.234,0-0.447,0.053-0.639,0.158s-0.354,0.242-0.486,0.41s-0.234,0.355-0.305,0.562S1149.021,317.602,1149.021,317.812z"/>
</g>
<path fill="none" stroke="#CCCCCC" stroke-width="1.5" stroke-linecap="round" stroke-miterlimit="10" d="M1016.146,316.572
	c-9.382-2.614-17.779-1.977-26.611,2.129c-8.831,4.106-12.831,8.794-19.33,16.048"/>
<path fill="none" stroke="#CCCCCC" stroke-width="1.5" stroke-linecap="round" stroke-linejoin="round" stroke-miterlimit="10" d="
	M965.274,333.28c-1.035,2.571-2.498,4.97-4.311,7.065c4.618-0.112,9.427-0.273,13.506-2.442"/>
<g>
</g>
<g>
</g>
<g>
</g>
<g>
</g>
<g>
</g>
<g>
</g>
<g>
</g>
<g>
</g>
<g>
</g>
<g>
</g>
<g>
</g>
<g>
</g>
<g>
</g>
<g>
</g>
<g>
</g>
</svg>
